<?xml version="1.0" standalone="no"?>
<!DOCTYPE svg PUBLIC "-//W3C//DTD SVG 20010904//EN"
 "http://www.w3.org/TR/2001/REC-SVG-20010904/DTD/svg10.dtd">
<svg version="1.0" xmlns="http://www.w3.org/2000/svg"
 width="8888.000000pt" height="8888.000000pt" viewBox="0 0 8888.000000 8888.000000"
 preserveAspectRatio="xMidYMid meet">
<linearGradient id="Gradient" x1="0" x2="0.8" y1="0" y2="1">
    <stop offset="0%" stop-color="#ff0074"/>
    <stop offset="100%" stop-color="#ffbb00"/>
</linearGradient>
<g transform="translate(0.000000,8888.000000) scale(0.100000,-0.100000)"
fill="url(#Gradient)" stroke="none">
<path d="M44374 85202 c-71 -25 -193 -97 -253 -149 -55 -48 -113 -76 -276
-135 -144 -51 -226 -97 -303 -169 -169 -158 -368 -273 -565 -325 -121 -32
-163 -54 -238 -121 -173 -154 -369 -271 -594 -354 -97 -36 -182 -92 -296 -196
-54 -48 -115 -92 -160 -115 -114 -57 -287 -132 -362 -157 -94 -32 -196 -103
-294 -205 -46 -47 -88 -86 -94 -86 -5 0 -49 -20 -96 -45 -47 -25 -91 -45 -98
-45 -8 0 -84 -25 -170 -56 -195 -69 -278 -117 -359 -208 -82 -93 -210 -177
-321 -211 -242 -74 -363 -141 -495 -275 -105 -108 -187 -154 -341 -192 -214
-52 -334 -122 -514 -298 -132 -128 -155 -141 -310 -174 -54 -12 -126 -40 -221
-86 -140 -69 -141 -70 -266 -194 -149 -150 -176 -164 -380 -206 -113 -23 -161
-38 -228 -72 -87 -44 -111 -65 -260 -224 -47 -50 -103 -100 -125 -112 -22 -11
-94 -34 -160 -51 -199 -52 -326 -126 -500 -290 -127 -120 -192 -156 -363 -201
-95 -26 -140 -43 -197 -79 -119 -74 -196 -130 -262 -192 -59 -54 -148 -120
-201 -148 -12 -7 -84 -27 -159 -46 -75 -19 -158 -46 -185 -60 -67 -35 -190
-126 -263 -195 -56 -54 -143 -118 -222 -166 -19 -12 -60 -27 -91 -33 -127 -27
-189 -44 -223 -62 -42 -21 -187 -129 -274 -203 -78 -67 -202 -159 -243 -180
-18 -9 -79 -33 -134 -52 -128 -45 -185 -74 -273 -139 -216 -159 -400 -265
-547 -315 -174 -58 -198 -72 -374 -215 -202 -164 -255 -194 -476 -266 -182
-59 -212 -74 -290 -147 -157 -145 -331 -248 -593 -352 -101 -40 -135 -61 -210
-130 -115 -106 -206 -167 -320 -215 -60 -26 -139 -61 -175 -77 -36 -16 -99
-43 -140 -60 -68 -27 -129 -63 -155 -92 -19 -21 -160 -143 -195 -168 -19 -14
-91 -46 -160 -72 -190 -69 -389 -153 -414 -173 -11 -9 -66 -61 -121 -114 -55
-52 -120 -109 -145 -126 -47 -32 -198 -95 -260 -108 -74 -16 -263 -99 -308
-135 -26 -21 -96 -83 -155 -138 -120 -111 -174 -141 -337 -182 -179 -46 -290
-113 -448 -268 -62 -62 -132 -123 -156 -137 -23 -14 -98 -39 -166 -55 -100
-25 -149 -44 -259 -102 -148 -78 -183 -103 -312 -224 -47 -45 -95 -86 -106
-93 -35 -18 -173 -59 -243 -71 -36 -6 -94 -23 -130 -37 -132 -52 -166 -80
-395 -327 -37 -40 -118 -72 -247 -96 -77 -15 -121 -31 -210 -77 -104 -53 -123
-67 -255 -195 -157 -153 -165 -158 -352 -213 -134 -39 -257 -96 -336 -155 -27
-20 -78 -57 -111 -81 -34 -24 -89 -68 -123 -97 -78 -66 -132 -93 -274 -139
-136 -44 -210 -84 -362 -200 -278 -211 -278 -211 -355 -236 -41 -14 -109 -33
-150 -43 -119 -27 -174 -60 -355 -214 -197 -168 -296 -225 -462 -265 -78 -18
-143 -56 -322 -187 -89 -66 -206 -143 -309 -205 -20 -12 -79 -36 -132 -53
-152 -51 -221 -91 -340 -195 -147 -130 -358 -247 -513 -285 -123 -30 -217 -82
-317 -175 -177 -164 -302 -237 -543 -316 -115 -37 -200 -85 -262 -149 -95 -97
-238 -192 -350 -230 -32 -11 -82 -33 -109 -49 -28 -15 -83 -40 -123 -55 -83
-32 -114 -53 -243 -170 -111 -100 -188 -144 -320 -181 -52 -15 -164 -61 -248
-102 -151 -74 -155 -76 -261 -183 -59 -59 -127 -118 -152 -130 -24 -13 -107
-44 -184 -70 -186 -63 -281 -101 -332 -133 -23 -15 -96 -78 -161 -141 -135
-130 -202 -168 -366 -211 -113 -29 -193 -57 -241 -82 -76 -40 -196 -135 -237
-188 -70 -91 -176 -153 -326 -191 -203 -51 -335 -129 -512 -299 -121 -116
-158 -136 -309 -170 -195 -43 -361 -136 -525 -292 -135 -129 -179 -152 -366
-189 -74 -14 -151 -33 -170 -41 -55 -22 -174 -118 -219 -176 -65 -85 -172
-184 -226 -210 -27 -13 -93 -34 -145 -46 -155 -36 -295 -115 -471 -266 -164
-140 -218 -172 -358 -214 -112 -34 -227 -91 -323 -162 -328 -241 -366 -263
-527 -304 -125 -32 -215 -71 -267 -117 -21 -19 -59 -49 -84 -68 -25 -19 -72
-59 -105 -90 -60 -54 -203 -148 -260 -170 -17 -7 -75 -23 -130 -37 -55 -14
-118 -34 -140 -45 -40 -20 -157 -114 -266 -214 -95 -86 -266 -183 -370 -209
-160 -40 -183 -52 -326 -166 -202 -161 -349 -248 -508 -301 -112 -37 -206 -88
-270 -148 -151 -141 -305 -226 -567 -314 -147 -49 -207 -84 -298 -171 -115
-111 -219 -187 -299 -220 -401 -166 -417 -173 -508 -256 -132 -119 -204 -164
-345 -214 -67 -24 -181 -71 -251 -104 -120 -57 -135 -67 -246 -171 -64 -61
-135 -122 -157 -135 -22 -13 -98 -41 -170 -63 -71 -21 -163 -54 -204 -72 -168
-73 -191 -88 -320 -215 -69 -67 -143 -131 -165 -142 -39 -20 -117 -46 -285
-97 -140 -42 -216 -84 -317 -177 -51 -46 -101 -96 -112 -110 -47 -61 -162
-115 -336 -159 -60 -15 -149 -46 -196 -69 -79 -37 -99 -54 -220 -176 -151
-153 -181 -172 -326 -206 -128 -30 -202 -76 -291 -181 -72 -85 -84 -132 -93
-383 -4 -121 -8 -1257 -9 -2525 -1 -2262 0 -2307 19 -2415 37 -200 86 -308
194 -422 63 -66 85 -83 174 -125 56 -26 106 -48 111 -48 5 0 65 -27 133 -60
139 -68 287 -168 385 -259 74 -70 156 -114 297 -161 120 -39 203 -93 347 -225
109 -101 235 -191 313 -224 25 -11 89 -31 142 -45 53 -14 111 -36 128 -48 18
-11 95 -85 172 -163 160 -161 220 -200 370 -236 210 -50 270 -85 445 -259 100
-100 116 -112 223 -164 64 -31 164 -76 224 -100 173 -70 199 -84 289 -165 153
-137 182 -157 291 -202 100 -40 191 -87 308 -158 28 -16 106 -78 175 -137 161
-138 173 -145 313 -193 181 -62 204 -77 377 -241 138 -130 169 -154 250 -195
61 -31 133 -56 214 -76 66 -16 134 -35 151 -41 16 -7 95 -76 174 -154 132
-131 154 -148 260 -205 82 -44 138 -67 196 -79 133 -30 184 -60 324 -194 70
-67 143 -130 164 -141 20 -11 37 -23 37 -27 0 -5 7 -8 15 -8 9 0 47 -16 85
-35 38 -19 103 -46 144 -59 41 -14 89 -32 108 -42 62 -32 163 -109 243 -185
95 -92 168 -136 301 -184 151 -55 317 -155 433 -261 170 -154 194 -170 334
-215 108 -35 148 -53 222 -103 49 -34 116 -86 150 -116 170 -156 319 -244 475
-280 127 -30 167 -57 345 -236 112 -113 127 -124 225 -171 58 -28 150 -64 206
-81 56 -17 121 -40 145 -52 24 -13 99 -76 165 -142 116 -112 128 -121 235
-172 63 -29 176 -79 252 -111 146 -61 187 -90 372 -264 65 -61 82 -71 225
-130 247 -101 299 -132 525 -316 132 -108 128 -106 295 -169 80 -31 152 -65
162 -76 9 -11 19 -20 23 -20 9 0 150 -114 215 -175 30 -28 105 -81 165 -117
86 -51 130 -71 200 -88 166 -41 185 -52 287 -158 137 -142 208 -209 255 -241
47 -32 155 -71 258 -95 39 -9 107 -34 151 -56 65 -32 97 -56 155 -118 82 -86
183 -169 244 -199 47 -24 181 -79 281 -117 104 -39 198 -99 284 -180 143 -136
192 -167 325 -213 38 -13 86 -34 105 -47 20 -13 58 -35 86 -49 27 -14 77 -49
110 -79 34 -30 79 -68 100 -84 22 -16 67 -54 102 -86 79 -73 114 -90 243 -123
170 -44 237 -84 404 -243 167 -159 288 -231 479 -282 43 -11 92 -28 108 -36
17 -9 90 -71 164 -139 112 -103 152 -133 242 -181 169 -90 174 -91 263 -114
136 -35 159 -49 302 -188 146 -142 219 -188 429 -272 125 -49 210 -106 338
-225 117 -110 147 -128 294 -182 184 -67 338 -155 441 -253 89 -85 225 -188
268 -204 23 -8 81 -27 130 -41 96 -28 174 -76 357 -220 195 -153 287 -209 386
-235 174 -46 216 -75 404 -279 113 -122 168 -153 399 -226 164 -52 203 -75
330 -198 64 -63 134 -125 156 -139 57 -35 236 -115 325 -145 41 -14 100 -38
131 -53 72 -37 193 -133 242 -193 42 -51 121 -99 249 -152 216 -89 370 -185
531 -332 68 -62 144 -103 267 -143 49 -16 112 -41 140 -55 57 -29 173 -135
241 -220 43 -55 106 -104 205 -162 61 -37 93 -48 228 -78 57 -13 119 -31 137
-40 18 -10 89 -73 158 -140 174 -169 281 -237 442 -280 176 -47 243 -88 406
-251 85 -86 101 -97 225 -157 73 -35 144 -68 158 -72 83 -26 237 -112 303
-170 40 -35 100 -88 134 -118 41 -36 84 -62 125 -77 180 -65 226 -86 310 -142
51 -33 119 -86 153 -117 94 -89 196 -176 240 -204 22 -14 96 -42 165 -62 147
-43 220 -80 299 -149 242 -211 346 -279 499 -328 213 -66 211 -65 370 -223
140 -140 147 -145 265 -204 67 -33 158 -70 202 -81 130 -33 179 -62 287 -171
54 -54 124 -116 157 -138 60 -41 261 -137 336 -161 100 -32 213 -107 330 -220
97 -93 170 -139 295 -184 178 -64 330 -157 505 -307 108 -94 154 -120 302
-174 126 -45 220 -105 338 -216 76 -72 243 -191 302 -216 21 -9 81 -28 134
-43 53 -15 114 -36 135 -46 22 -11 106 -86 194 -175 136 -137 164 -160 230
-192 41 -20 112 -45 157 -57 206 -51 293 -98 391 -209 119 -133 203 -185 487
-298 167 -66 206 -94 387 -275 42 -42 83 -65 183 -101 163 -58 295 -133 438
-250 217 -175 258 -202 366 -238 183 -60 206 -74 373 -231 205 -191 296 -246
478 -288 136 -32 180 -58 305 -180 61 -58 130 -120 155 -137 77 -52 230 -124
339 -159 135 -44 206 -88 289 -180 108 -121 221 -190 470 -286 128 -50 232
-117 342 -223 98 -94 176 -143 275 -175 125 -39 305 -145 439 -256 66 -56 132
-113 146 -128 33 -37 55 -48 209 -100 141 -49 249 -109 356 -202 83 -71 260
-196 321 -227 28 -14 103 -45 165 -68 63 -23 132 -54 154 -70 22 -15 94 -82
159 -148 113 -113 126 -123 246 -185 70 -36 161 -74 202 -85 141 -38 182 -58
261 -129 41 -37 96 -92 121 -123 54 -66 94 -95 191 -141 64 -30 78 -33 165
-33 90 0 99 2 174 39 67 33 101 60 220 175 154 150 193 173 369 221 43 11 131
47 195 80 111 57 122 66 222 173 134 144 165 167 275 207 50 18 122 46 160 62
84 35 272 160 358 237 34 31 86 74 116 95 61 43 187 106 212 106 19 0 136 43
181 66 17 9 58 41 92 72 214 196 374 302 538 358 122 41 188 81 302 184 102
92 213 162 336 213 249 104 330 154 465 293 100 102 178 147 310 179 72 18
191 73 285 133 30 19 111 90 180 158 142 140 182 163 325 189 183 33 259 79
453 275 81 81 165 156 187 168 22 11 99 38 171 61 150 47 171 60 393 245 162
134 263 194 426 251 123 42 147 58 265 167 60 55 124 110 142 121 29 18 155
76 403 184 97 43 109 52 255 192 126 121 176 151 320 196 250 77 294 103 476
284 78 76 159 148 180 159 22 10 84 34 139 52 55 18 118 42 140 53 62 31 237
151 265 182 36 40 216 173 269 199 25 13 78 33 116 46 107 35 153 61 309 178
183 136 377 252 486 292 102 36 230 121 287 188 64 76 230 189 342 232 288
113 347 146 466 266 128 129 170 155 320 200 33 9 119 47 190 83 127 64 133
68 262 198 144 146 168 160 353 217 141 43 288 137 498 318 86 74 175 120 284
147 165 40 213 70 405 248 128 118 137 125 236 185 48 29 124 62 192 84 102
32 121 42 191 101 44 36 106 91 139 122 62 60 119 90 380 206 181 81 211 100
323 211 152 152 233 198 407 234 145 30 280 116 423 269 57 61 122 122 145
135 39 23 119 46 260 76 112 23 249 114 334 222 69 87 158 174 209 204 24 14
91 41 149 60 129 42 209 81 269 133 63 54 308 221 381 259 33 17 130 65 215
105 133 64 161 82 194 122 58 70 223 188 314 224 42 17 109 47 147 65 39 19
111 54 160 78 79 37 105 57 210 159 132 128 177 156 335 208 114 38 212 77
260 102 40 21 182 156 252 240 57 68 144 116 277 154 167 47 248 97 534 337
84 69 161 108 294 148 88 26 114 39 190 97 48 36 115 91 148 123 146 138 285
217 475 266 105 27 173 69 290 180 131 124 208 182 285 215 32 13 120 54 195
91 128 63 144 74 240 167 139 136 186 166 310 202 67 20 154 57 248 107 136
70 155 85 284 204 132 122 142 129 211 148 265 77 345 122 526 295 166 159
220 193 371 236 63 17 136 42 161 55 44 22 186 136 299 240 72 67 237 166 325
194 138 45 176 70 350 230 59 54 218 141 310 170 22 7 51 19 65 26 14 8 58 28
99 44 96 39 184 103 295 215 103 104 195 158 330 194 143 39 222 78 317 158
48 40 89 78 91 83 6 19 164 172 192 187 30 16 73 29 200 63 103 27 244 111
345 203 121 112 199 177 210 177 6 0 11 6 11 14 0 17 64 44 197 85 114 35 201
87 318 191 166 148 266 208 480 291 144 56 201 87 237 128 47 54 208 190 251
212 20 11 77 37 125 58 345 153 320 138 468 275 74 70 152 135 172 145 20 10
98 38 172 61 193 60 295 115 378 204 208 221 227 235 387 281 50 14 117 38
150 54 66 30 201 130 310 227 39 35 107 88 152 118 67 44 100 58 171 74 157
37 194 55 323 166 287 244 348 285 494 332 113 36 217 96 299 174 108 101 221
176 344 225 60 24 136 57 170 74 34 17 68 31 77 31 8 0 15 4 15 10 0 5 15 17
33 26 17 9 84 68 148 131 129 125 198 166 344 202 41 11 96 32 121 48 25 15
62 38 82 50 20 12 72 59 116 103 81 85 154 130 210 130 73 0 150 -79 174 -180
17 -71 32 -253 32 -395 0 -408 -20 -17025 -21 -17097 -1 -65 5 -104 21 -154
26 -78 64 -124 144 -176 l59 -38 2757 0 2756 0 45 28 c75 49 122 109 149 190
22 71 23 82 17 270 -4 109 -7 6144 -7 13413 0 8241 -4 13245 -10 13291 -16
127 -43 183 -129 269 -82 82 -147 119 -250 143 -120 28 -178 64 -302 188 -63
63 -130 126 -150 141 -47 35 -193 94 -304 122 -166 42 -227 78 -377 220 -148
140 -176 158 -368 220 -124 41 -275 100 -301 119 -9 6 -71 63 -137 127 -67 64
-141 126 -164 137 -66 34 -261 108 -384 147 -61 19 -127 46 -147 59 -52 36
-162 130 -221 190 -42 42 -75 63 -181 110 -71 33 -186 81 -254 107 -143 55
-225 107 -352 224 -72 66 -102 87 -166 113 -173 69 -355 152 -400 183 -66 45
-135 101 -224 184 -96 89 -144 114 -303 159 -201 58 -339 136 -531 301 -55 48
-113 93 -128 101 -30 16 -212 74 -231 74 -19 0 -165 73 -229 114 -32 21 -82
59 -110 84 -29 26 -70 61 -92 77 -22 16 -65 50 -95 76 -65 55 -93 68 -242 109
-96 27 -126 41 -212 98 -56 37 -123 87 -151 112 -64 58 -243 193 -284 214 -17
9 -88 30 -157 47 -170 40 -232 73 -363 192 -119 108 -235 197 -296 228 -34 16
-121 45 -195 65 -144 37 -193 61 -308 151 -37 29 -96 73 -132 98 -36 24 -87
61 -115 81 -75 53 -130 79 -273 128 -168 58 -199 74 -284 152 -211 194 -403
307 -577 340 -124 24 -166 50 -300 191 -187 196 -238 227 -451 268 -196 37
-235 58 -369 195 -155 158 -321 252 -501 284 -148 26 -204 59 -340 196 -63 63
-145 135 -181 158 -71 46 -182 90 -294 117 -38 9 -113 37 -165 63 -80 39 -107
58 -170 125 -125 132 -253 208 -446 266 -216 64 -264 91 -407 228 -60 56 -127
114 -150 127 -47 28 -277 122 -381 156 -107 35 -181 84 -291 190 -106 103
-148 131 -260 175 -38 15 -92 37 -120 50 -27 12 -84 32 -125 44 -128 39 -215
90 -342 203 -64 56 -141 115 -170 129 -148 74 -306 148 -328 154 -80 24 -230
119 -330 211 -72 66 -155 113 -275 157 -217 79 -371 170 -525 310 -89 81 -183
135 -305 175 -150 48 -332 151 -523 293 -125 93 -209 138 -311 168 -143 43
-213 86 -526 320 -137 103 -176 123 -292 150 -144 32 -198 66 -465 292 -138
117 -203 151 -361 190 -148 37 -213 70 -325 169 -198 173 -322 246 -503 298
-149 44 -205 71 -285 138 -194 167 -373 273 -559 334 -168 55 -197 74 -320
209 -60 67 -133 137 -162 156 -72 49 -189 94 -291 111 -48 8 -123 27 -167 42
-79 27 -81 29 -220 169 -135 137 -144 144 -245 192 -67 32 -135 56 -185 66
-44 8 -116 27 -160 41 -72 24 -88 35 -160 103 -167 160 -194 180 -331 247 -98
48 -164 72 -254 94 -66 17 -138 39 -159 49 -20 11 -89 69 -152 128 -63 60
-141 127 -174 149 -72 49 -193 104 -295 134 -134 39 -236 96 -314 175 -86 86
-174 159 -224 184 -20 10 -113 44 -207 75 -260 88 -298 109 -440 245 -77 75
-140 126 -175 143 -30 15 -159 68 -286 118 -252 99 -214 76 -429 264 -79 70
-95 79 -197 120 -48 19 -111 47 -140 62 -29 15 -100 49 -158 74 -108 47 -233
130 -340 225 -63 57 -85 69 -205 112 -38 13 -133 55 -210 93 -143 69 -242 139
-372 261 -73 67 -114 88 -278 135 -195 56 -277 104 -495 288 -133 113 -203
152 -355 196 -61 18 -134 46 -164 62 -69 38 -264 171 -405 276 -75 55 -150 90
-284 131 -88 28 -115 42 -190 98 -48 36 -114 91 -147 122 -65 61 -222 179
-270 204 -33 16 -110 38 -224 62 -41 9 -83 21 -95 27 -39 20 -171 122 -227
175 -80 76 -194 159 -266 194 -34 16 -123 45 -197 64 -154 38 -210 69 -316
170 -80 77 -251 197 -345 241 -38 19 -115 45 -170 60 -145 38 -194 66 -325
184 -63 58 -145 126 -180 152 -80 56 -228 120 -346 149 -147 35 -180 56 -301
186 -60 64 -134 133 -167 154 -79 52 -189 92 -321 118 -167 33 -214 60 -342
197 -149 159 -259 221 -505 283 -144 36 -190 65 -331 206 -97 96 -111 106
-237 168 -91 45 -166 75 -230 91 -163 40 -262 95 -363 202 -110 117 -225 181
-469 266 -120 41 -247 122 -333 212 -79 83 -153 134 -246 170 -171 65 -276
104 -299 111 -14 4 -68 29 -120 57 -72 37 -117 70 -186 136 -106 101 -174 144
-287 184 -45 16 -111 44 -147 63 -36 19 -104 52 -152 74 -100 45 -147 76 -243
161 -90 79 -178 131 -285 168 -205 72 -400 188 -558 334 -78 72 -135 101 -260
134 -187 50 -379 166 -568 344 -63 59 -133 95 -294 150 -165 56 -233 89 -305
150 -70 59 -213 135 -270 144 -26 4 -57 0 -91 -12z m246 -7344 c102 -32 127
-49 260 -178 122 -118 129 -123 265 -190 80 -39 186 -81 248 -99 60 -17 126
-40 147 -51 54 -28 142 -99 225 -184 62 -62 88 -80 215 -143 80 -39 196 -88
258 -108 133 -44 229 -103 335 -207 58 -58 91 -79 191 -128 67 -32 175 -79
240 -104 155 -59 261 -123 361 -217 114 -108 157 -132 415 -224 189 -68 280
-124 457 -279 85 -74 166 -119 284 -159 161 -54 413 -209 568 -349 66 -61 88
-72 231 -120 63 -21 135 -51 160 -67 25 -15 72 -43 105 -61 33 -18 92 -56 130
-85 39 -28 79 -57 90 -63 11 -5 53 -37 94 -70 75 -62 110 -78 276 -127 111
-33 208 -89 300 -175 128 -118 235 -205 294 -238 37 -20 111 -46 197 -68 149
-38 263 -90 338 -155 42 -36 194 -141 314 -216 69 -44 154 -80 257 -109 78
-22 144 -60 229 -131 38 -32 90 -74 116 -93 27 -19 75 -56 108 -81 94 -72 224
-134 335 -159 148 -33 196 -62 324 -194 61 -62 138 -133 173 -156 88 -60 200
-106 300 -123 149 -26 186 -45 312 -166 187 -177 324 -257 536 -311 139 -36
215 -78 313 -171 143 -136 320 -237 534 -304 142 -45 200 -79 272 -160 68 -78
189 -178 253 -210 44 -22 119 -47 295 -100 136 -41 237 -97 286 -159 46 -58
145 -146 205 -182 22 -13 79 -37 125 -53 46 -16 130 -45 186 -64 149 -52 196
-80 313 -193 58 -55 125 -114 150 -130 49 -33 314 -143 395 -164 115 -29 205
-83 324 -195 107 -100 122 -111 255 -175 77 -37 181 -82 231 -99 113 -40 227
-113 331 -210 86 -82 156 -124 274 -165 119 -42 268 -107 300 -130 16 -11 51
-36 77 -55 26 -19 92 -74 146 -122 123 -110 178 -142 303 -175 54 -14 128 -39
164 -56 97 -44 264 -145 318 -193 52 -46 178 -140 232 -172 19 -11 80 -33 135
-48 184 -51 339 -138 529 -297 147 -124 162 -133 287 -169 151 -44 231 -91
391 -227 118 -102 234 -188 285 -212 24 -11 94 -31 158 -44 73 -16 136 -36
174 -56 33 -18 133 -94 222 -170 195 -166 267 -209 416 -249 159 -43 238 -78
302 -131 54 -44 79 -63 264 -192 109 -76 203 -122 312 -153 150 -42 195 -70
342 -214 117 -113 145 -136 237 -184 89 -47 124 -60 233 -82 191 -40 198 -44
345 -204 117 -128 133 -142 216 -185 72 -36 115 -51 214 -71 205 -41 209 -43
385 -201 163 -147 329 -240 510 -284 155 -39 199 -65 323 -191 58 -59 126
-123 151 -142 63 -46 176 -92 317 -128 162 -42 214 -72 365 -216 149 -142 181
-160 432 -243 226 -74 254 -91 398 -228 l124 -117 169 -71 c93 -40 203 -84
244 -99 41 -16 91 -36 110 -45 35 -18 154 -116 260 -215 35 -32 79 -61 120
-77 36 -15 119 -49 185 -76 66 -27 153 -62 192 -77 79 -29 206 -117 282 -195
63 -64 92 -82 198 -124 93 -36 144 -59 288 -125 78 -37 144 -87 300 -229 86
-79 131 -102 298 -153 203 -62 385 -168 563 -330 74 -67 166 -116 293 -158 52
-17 130 -52 175 -78 225 -130 310 -185 391 -252 64 -54 178 -111 221 -111 18
0 34 -3 36 -7 2 -5 28 -16 58 -26 61 -21 243 -138 332 -213 96 -82 223 -173
270 -194 25 -11 94 -31 153 -45 59 -14 121 -33 138 -41 48 -25 135 -91 202
-155 94 -90 269 -215 332 -239 32 -12 105 -33 163 -46 118 -28 204 -75 320
-174 118 -102 288 -221 352 -247 35 -14 110 -39 166 -55 142 -39 205 -74 304
-165 142 -131 284 -223 413 -270 22 -8 82 -25 134 -39 139 -36 178 -61 293
-191 157 -177 236 -224 453 -268 183 -37 234 -63 341 -174 105 -109 168 -153
289 -202 50 -19 99 -41 110 -47 11 -6 59 -29 106 -50 60 -27 94 -50 111 -73
104 -137 65 -275 -112 -399 -47 -33 -96 -68 -110 -79 -14 -12 -31 -21 -37 -21
-7 0 -13 -4 -13 -8 0 -5 -15 -16 -34 -24 -18 -9 -59 -38 -91 -64 -32 -26 -115
-83 -184 -127 -104 -67 -146 -87 -252 -121 -140 -46 -171 -66 -320 -203 -139
-127 -215 -174 -429 -263 -175 -73 -222 -102 -325 -200 -49 -47 -111 -101
-137 -118 -58 -40 -160 -86 -236 -108 -32 -9 -111 -44 -176 -78 -114 -58 -125
-67 -245 -190 -135 -138 -174 -163 -311 -201 -72 -19 -189 -75 -290 -138 -64
-40 -150 -111 -261 -213 -67 -63 -134 -98 -225 -119 -106 -24 -222 -72 -291
-118 -34 -23 -113 -90 -175 -148 -144 -135 -256 -205 -413 -259 -125 -44 -149
-57 -230 -130 -147 -133 -368 -268 -552 -340 -109 -41 -161 -78 -276 -192
-110 -108 -185 -153 -344 -207 -122 -41 -252 -102 -294 -137 -19 -16 -86 -81
-149 -146 -92 -93 -128 -123 -179 -147 -63 -30 -83 -35 -240 -66 -148 -29
-215 -78 -420 -303 -93 -103 -140 -132 -276 -172 -44 -12 -96 -31 -116 -41
-55 -27 -180 -112 -232 -158 -26 -22 -69 -55 -95 -73 -26 -18 -71 -52 -101
-76 -62 -50 -114 -76 -266 -132 -133 -49 -194 -85 -289 -170 -122 -108 -226
-177 -367 -241 -74 -33 -138 -64 -144 -69 -5 -4 -41 -21 -79 -36 -59 -23 -87
-45 -200 -151 -138 -132 -180 -159 -313 -204 -98 -33 -283 -114 -336 -147 -21
-13 -92 -77 -157 -142 -129 -129 -151 -144 -302 -196 -202 -71 -323 -144 -487
-298 -166 -155 -162 -153 -336 -207 -129 -40 -160 -58 -338 -201 -82 -65 -180
-137 -219 -160 -38 -24 -82 -51 -96 -60 -15 -9 -70 -29 -122 -44 -138 -39
-194 -71 -300 -171 -169 -159 -315 -252 -501 -319 -107 -39 -207 -102 -295
-186 -110 -106 -225 -181 -311 -203 -37 -10 -106 -36 -153 -57 -150 -69 -220
-120 -334 -242 -118 -127 -143 -142 -293 -177 -83 -19 -211 -76 -305 -135 -22
-14 -107 -88 -189 -164 -164 -153 -166 -154 -354 -195 -51 -11 -111 -34 -165
-63 -102 -55 -114 -64 -210 -155 -218 -210 -251 -232 -423 -287 -118 -39 -156
-62 -314 -194 -135 -112 -283 -200 -478 -284 -44 -19 -85 -40 -91 -48 -6 -8
-19 -14 -28 -14 -9 0 -72 -53 -139 -118 -67 -66 -136 -126 -154 -135 -31 -17
-169 -68 -288 -108 -146 -50 -250 -120 -380 -258 -119 -126 -207 -173 -395
-212 -156 -32 -245 -89 -372 -239 -142 -168 -174 -190 -358 -244 -109 -32
-177 -73 -349 -210 -194 -154 -289 -212 -428 -258 -147 -49 -188 -73 -299
-178 -143 -133 -222 -187 -363 -247 -69 -30 -150 -63 -180 -73 -90 -32 -181
-94 -282 -192 -109 -106 -176 -149 -292 -190 -45 -16 -109 -41 -142 -57 -33
-16 -86 -41 -118 -56 -55 -25 -185 -143 -282 -254 -32 -37 -73 -57 -220 -106
-188 -64 -328 -153 -537 -342 -90 -82 -149 -114 -293 -158 -162 -50 -216 -83
-410 -250 -156 -134 -279 -207 -404 -240 -125 -32 -208 -86 -360 -234 -81 -78
-260 -192 -341 -216 -14 -4 -76 -32 -138 -62 -101 -48 -124 -65 -220 -156
-118 -113 -216 -172 -332 -202 -90 -23 -177 -59 -272 -112 -61 -35 -111 -76
-209 -173 -77 -77 -147 -137 -173 -150 -25 -12 -96 -34 -158 -49 -63 -16 -134
-39 -158 -51 -85 -43 -198 -121 -223 -153 -14 -18 -65 -73 -113 -123 -98 -99
-145 -127 -276 -163 -43 -11 -111 -37 -151 -57 -76 -37 -230 -150 -327 -240
-70 -66 -211 -154 -309 -194 -136 -56 -183 -84 -260 -154 -102 -93 -232 -177
-333 -215 -46 -18 -98 -41 -117 -52 -19 -11 -72 -35 -118 -54 -127 -51 -158
-73 -284 -197 -124 -123 -187 -163 -332 -212 -125 -43 -249 -95 -289 -121 -21
-14 -95 -83 -166 -153 -127 -127 -129 -128 -223 -164 -52 -19 -112 -39 -134
-43 -49 -8 -163 -60 -237 -108 -31 -19 -120 -95 -199 -169 -79 -73 -156 -141
-170 -150 -14 -9 -82 -34 -151 -56 -135 -42 -199 -80 -353 -204 -216 -172
-291 -219 -435 -267 -142 -47 -215 -91 -332 -199 -123 -114 -217 -179 -344
-236 -303 -137 -304 -137 -407 -234 -159 -149 -188 -168 -344 -218 -210 -69
-308 -128 -468 -284 -71 -70 -149 -137 -172 -149 -154 -78 -465 -70 -610 15
-24 14 -98 78 -166 143 -104 101 -139 128 -233 179 -60 33 -152 74 -204 92
-52 17 -113 42 -135 54 -56 30 -228 169 -247 198 -25 39 -87 75 -233 139 -226
98 -297 142 -467 290 -149 129 -209 165 -367 215 -132 42 -145 49 -248 125
-59 45 -133 102 -163 128 -30 26 -101 78 -156 115 -83 55 -121 73 -205 98 -57
16 -122 39 -144 50 -46 24 -205 175 -205 195 0 7 -6 13 -13 13 -8 0 -24 12
-38 26 -75 81 -256 182 -356 199 -118 20 -252 86 -324 159 -27 27 -49 53 -49
57 0 6 -114 103 -177 151 -15 12 -154 70 -278 118 -147 55 -217 100 -340 220
-113 110 -158 140 -283 185 -92 34 -296 139 -357 184 -27 20 -68 50 -90 66
-22 16 -68 55 -102 87 -69 64 -119 92 -248 137 -127 45 -197 87 -312 188 -186
164 -228 194 -328 243 -58 29 -132 56 -175 65 -41 9 -106 31 -145 50 -71 34
-106 67 -235 224 -50 61 -201 166 -258 180 -21 4 -86 20 -145 34 -59 14 -128
36 -153 48 -28 13 -92 68 -162 138 -65 65 -137 131 -162 148 -73 50 -186 102
-309 145 -153 52 -235 102 -359 221 -86 82 -117 105 -190 139 -236 110 -276
130 -349 179 -43 29 -103 76 -133 104 -88 82 -209 176 -249 192 -20 9 -82 28
-139 44 -57 16 -122 39 -145 51 -54 27 -154 105 -237 183 -153 146 -255 211
-390 250 -147 42 -209 75 -301 157 -171 151 -250 208 -368 268 -65 32 -146 66
-181 75 -160 42 -181 54 -323 198 -84 85 -148 141 -177 154 -173 82 -241 113
-287 127 -79 26 -168 89 -283 201 -111 108 -165 142 -310 195 -123 45 -281
125 -336 167 -28 23 -65 48 -82 57 -17 9 -66 49 -109 89 -95 88 -158 125 -294
173 -107 37 -177 78 -304 178 -292 231 -361 272 -497 300 -43 8 -99 26 -125
40 -47 23 -166 138 -231 222 -38 50 -162 147 -216 169 -21 9 -83 27 -136 40
-180 45 -230 75 -405 245 -136 131 -171 151 -415 242 -222 83 -251 100 -382
226 -64 61 -124 112 -134 112 -9 0 -22 6 -28 14 -6 8 -51 32 -101 53 -214 91
-345 168 -475 279 -163 138 -175 146 -303 188 -182 61 -213 81 -391 255 -141
136 -172 162 -251 203 -62 32 -120 53 -186 67 -143 30 -179 50 -288 153 -53
50 -122 113 -155 140 -72 61 -272 162 -359 182 -146 34 -188 59 -300 175 -56
59 -122 121 -147 138 -84 57 -234 131 -331 162 -116 38 -242 120 -339 219 -70
73 -174 134 -298 177 -173 59 -272 123 -476 310 -68 62 -138 121 -154 129 -17
9 -79 30 -139 47 -59 17 -124 39 -143 49 -59 31 -182 120 -307 221 -162 132
-200 154 -333 195 -220 68 -205 59 -350 204 -173 175 -294 251 -486 308 -147
44 -187 68 -289 171 -49 51 -113 110 -141 133 -52 41 -201 114 -349 169 -160
61 -193 82 -320 207 -125 122 -133 128 -309 202 -234 98 -342 166 -517 324
-80 73 -148 110 -284 157 -139 47 -163 60 -259 138 -291 235 -388 298 -521
336 -150 44 -184 65 -292 182 -197 213 -273 262 -470 303 -112 23 -239 80
-293 133 -19 18 -63 63 -98 100 -35 36 -87 84 -115 105 -50 39 -190 104 -327
153 -108 38 -211 100 -279 167 -148 146 -209 188 -341 232 -154 52 -368 188
-536 342 -76 69 -92 78 -241 126 -152 50 -254 113 -400 250 -62 58 -134 120
-160 139 -70 50 -177 98 -283 128 -144 40 -146 42 -366 245 -81 75 -309 198
-438 236 -59 18 -125 44 -145 57 -20 14 -89 77 -154 140 -101 100 -132 124
-224 173 -59 32 -153 74 -208 94 -163 60 -212 90 -357 226 -96 90 -147 119
-368 209 -163 67 -255 123 -357 218 -89 83 -176 156 -213 180 -14 9 -84 36
-155 60 -134 44 -196 80 -382 222 -36 28 -105 75 -153 105 -161 101 -259 170
-278 198 -87 123 -85 241 5 323 30 28 202 114 348 174 112 46 127 57 252 177
122 118 159 137 344 178 230 52 289 90 496 312 84 90 122 112 263 149 218 57
379 146 531 294 96 93 154 129 271 165 209 63 281 97 406 187 64 47 140 106
167 133 101 96 175 135 334 175 57 14 131 39 165 54 74 34 202 128 276 203 75
76 177 157 226 179 23 10 74 26 115 34 184 39 249 76 486 278 106 90 221 163
288 182 33 10 64 21 69 26 6 5 23 9 38 9 46 0 146 52 253 132 237 176 390 267
526 311 138 46 214 85 280 145 65 59 194 157 269 204 96 62 175 96 301 134
155 46 218 75 282 134 88 79 240 196 289 224 54 30 293 137 375 168 38 14 79
42 127 87 98 90 237 182 327 216 41 15 117 46 169 70 52 23 122 52 155 65 79
31 100 45 160 101 179 168 252 216 426 283 270 102 355 138 378 158 14 13 72
67 128 120 123 116 171 143 423 232 99 35 200 76 225 90 25 15 93 73 153 130
138 132 224 181 373 216 62 14 225 82 284 118 22 14 90 73 150 132 152 149
192 172 366 210 88 19 249 92 337 152 24 17 89 73 144 125 163 154 189 167
410 212 181 36 261 91 491 338 66 71 108 89 296 122 84 15 124 28 186 61 87
46 165 99 165 111 0 17 221 229 258 248 23 12 97 36 165 55 90 24 155 49 229
89 100 54 145 86 327 231 103 82 127 94 296 141 206 58 275 100 513 318 124
113 167 134 337 167 67 13 124 32 172 57 70 35 224 154 328 252 95 90 192 141
342 182 99 26 108 31 277 157 223 165 360 244 502 290 66 22 131 45 144 52 36
19 122 84 220 165 167 139 330 227 494 265 125 29 237 92 301 168 15 18 64 61
109 94 45 34 92 71 106 84 28 26 206 106 290 130 138 40 231 92 315 179 62 64
211 163 290 194 83 33 301 129 355 156 25 13 92 65 149 117 121 109 182 146
311 189 110 37 359 141 410 172 19 12 82 66 140 122 118 112 199 164 310 199
41 14 98 34 125 46 28 12 77 30 110 41 95 30 176 84 280 190 81 81 112 105
179 138 44 21 116 49 160 61 80 22 237 80 291 107 58 30 170 123 214 177 27
35 70 72 115 99 80 49 104 59 195 82 99 25 266 100 350 158 42 29 116 93 166
142 107 107 171 143 312 175 268 60 333 97 533 301 121 122 127 128 195 148
38 12 110 28 160 36 131 21 184 39 251 86 86 60 119 91 183 172 105 132 154
164 325 208 69 19 141 46 198 77 85 45 310 205 390 278 50 45 116 77 235 115
54 17 135 51 181 75 90 49 273 172 365 247 84 68 165 105 302 139 212 52 295
104 505 317 90 91 185 143 346 187 133 36 189 62 251 117 20 18 62 50 93 72
32 22 86 62 121 88 108 82 228 146 354 189 147 49 147 50 214 110 180 164 421
307 606 359 153 42 178 57 340 195 144 122 297 211 455 265 178 60 220 84 327
187 124 119 285 211 478 272 22 7 86 35 143 61 83 39 118 62 175 117 107 103
225 180 323 213 114 39 190 71 319 136 89 44 126 70 190 132 133 128 188 164
332 212 71 23 191 73 268 110 136 66 144 72 272 193 138 131 154 142 243 171
117 39 241 39 360 3z"/>
<path d="M17801 39835 c-60 -51 -67 -90 -62 -375 3 -140 6 -4627 8 -9970 3
-7925 2 -9736 -9 -9830 -7 -63 -13 -169 -12 -235 0 -117 2 -124 49 -260 75
-218 98 -269 161 -351 102 -133 222 -210 396 -255 134 -34 205 -78 353 -219
143 -137 140 -135 413 -249 193 -81 259 -120 366 -215 170 -152 197 -171 319
-212 79 -27 237 -121 316 -189 29 -25 74 -60 100 -77 25 -18 76 -56 112 -85
70 -56 182 -113 223 -113 14 0 28 -4 31 -10 3 -5 14 -10 23 -10 29 0 114 -45
177 -93 33 -25 98 -90 144 -145 134 -160 180 -188 402 -247 219 -58 231 -66
430 -280 57 -63 244 -162 395 -211 171 -55 200 -74 379 -245 62 -59 95 -79
261 -161 186 -93 334 -186 439 -280 136 -120 194 -157 299 -189 55 -18 124
-42 151 -54 53 -23 164 -114 310 -254 108 -103 203 -157 349 -196 159 -42 197
-64 321 -190 61 -61 135 -127 165 -147 86 -56 214 -116 309 -144 136 -41 234
-97 310 -177 102 -107 190 -166 401 -270 201 -99 297 -165 450 -311 66 -64
107 -86 232 -125 55 -18 133 -54 190 -88 89 -53 135 -89 312 -241 80 -69 165
-112 317 -162 68 -23 142 -52 165 -65 22 -13 96 -76 163 -139 156 -146 306
-239 485 -297 65 -22 128 -45 140 -51 11 -6 79 -68 151 -138 117 -114 141
-132 245 -187 63 -33 140 -68 170 -78 66 -21 181 -77 229 -113 20 -15 77 -65
126 -112 121 -115 151 -133 313 -195 77 -29 151 -59 163 -66 69 -36 213 -141
274 -199 116 -110 211 -173 301 -199 178 -50 212 -70 408 -238 116 -100 245
-191 318 -223 24 -10 79 -28 123 -40 44 -12 108 -37 142 -56 62 -34 150 -114
180 -163 16 -26 98 -99 176 -157 45 -33 162 -84 267 -116 131 -40 212 -92 323
-205 111 -114 148 -140 260 -183 41 -16 112 -47 159 -69 47 -23 90 -41 97 -41
43 0 231 -131 316 -220 60 -63 107 -91 260 -159 154 -69 209 -103 400 -251
209 -163 292 -210 439 -251 38 -11 82 -27 98 -35 33 -17 172 -154 252 -249 65
-76 179 -150 254 -165 212 -44 307 -80 372 -143 19 -18 75 -74 123 -124 75
-78 103 -99 195 -147 59 -31 148 -70 197 -87 124 -42 240 -108 300 -169 57
-59 195 -170 240 -192 17 -9 62 -28 100 -43 205 -80 328 -163 605 -406 24 -21
47 -39 51 -39 3 0 62 -18 130 -40 158 -51 218 -90 384 -250 72 -69 144 -135
160 -147 43 -30 195 -89 292 -112 75 -18 177 -63 213 -93 9 -7 44 -48 79 -91
35 -43 91 -101 125 -129 75 -63 250 -148 366 -178 121 -31 168 -61 301 -187
l117 -112 233 -116 c243 -122 306 -164 454 -305 81 -77 118 -98 270 -152 128
-45 173 -67 235 -117 25 -20 57 -44 72 -54 15 -9 67 -52 115 -94 145 -127 228
-176 373 -218 168 -49 172 -51 216 -92 175 -163 262 -237 324 -274 143 -88
166 -99 235 -120 148 -45 211 -82 324 -192 58 -57 131 -122 162 -145 57 -43
189 -105 303 -143 119 -40 224 -106 335 -212 122 -116 180 -155 276 -186 163
-52 366 -183 530 -341 68 -66 133 -101 272 -151 146 -51 239 -104 323 -184 64
-61 151 -124 220 -160 23 -13 57 -19 100 -19 61 0 70 3 150 54 47 29 122 86
167 126 92 82 176 128 323 179 107 38 215 94 245 129 40 46 243 214 291 241
27 15 69 41 94 56 25 15 83 40 130 54 145 44 204 79 311 185 116 115 214 176
428 265 176 74 247 121 377 250 102 102 159 136 305 184 53 18 123 48 155 67
32 19 85 49 119 67 39 21 105 75 192 160 144 139 162 150 321 193 53 14 115
35 137 47 76 38 190 120 240 172 65 68 216 190 267 216 22 11 85 36 141 55
142 50 193 78 267 149 170 161 297 240 604 375 79 35 106 53 177 121 162 156
215 190 362 233 48 13 141 53 206 86 124 64 128 68 330 283 46 49 134 92 241
116 86 20 178 54 260 96 26 13 110 88 197 173 124 123 165 157 224 186 39 20
78 36 86 36 37 0 207 65 232 89 61 59 261 223 326 269 107 74 151 97 267 140
135 49 188 84 310 199 114 108 201 162 341 213 57 20 150 61 208 90 95 49 115
65 225 175 141 143 183 167 372 214 185 46 221 68 402 252 85 87 169 164 185
172 17 8 68 27 115 42 167 54 294 135 541 346 85 72 145 104 284 155 172 62
200 77 266 143 142 143 203 187 361 264 84 42 164 78 177 82 97 29 156 68 274
183 133 128 198 169 342 215 170 55 247 94 340 173 48 41 105 96 127 122 22
26 52 57 66 70 51 43 155 95 229 113 151 38 304 134 506 318 120 109 161 134
280 171 56 18 115 40 131 48 42 21 181 127 246 187 103 96 278 201 400 240
148 47 204 81 331 201 122 115 234 185 377 235 29 10 101 46 159 79 82 48 133
87 234 183 71 67 144 129 162 139 19 9 76 29 128 43 60 17 143 52 229 98 120
63 148 83 253 181 169 160 182 168 302 210 143 49 266 111 330 166 29 25 92
79 140 120 119 104 254 182 379 221 123 38 184 68 222 109 16 18 84 77 150
133 124 104 242 174 427 253 93 40 194 114 286 209 75 78 189 140 331 180 180
51 346 158 456 296 86 108 166 154 323 185 42 9 114 34 160 56 73 35 102 58
245 195 88 85 180 165 202 179 37 22 129 52 251 84 46 11 178 104 258 180 107
101 294 226 402 269 125 49 228 108 284 161 78 75 178 163 210 183 14 10 79
37 145 61 65 24 177 71 247 105 128 61 130 62 242 179 67 69 134 129 163 145
26 14 113 45 192 67 220 63 266 92 404 252 118 139 197 198 306 229 25 7 49
16 54 21 6 4 22 8 36 8 36 0 176 70 230 115 24 20 65 51 90 68 25 17 77 58
115 92 100 87 206 149 310 183 133 43 181 71 289 169 188 170 286 231 511 318
144 56 186 84 300 200 107 108 208 171 340 210 174 53 282 122 381 246 66 83
86 122 142 279 75 211 84 256 77 383 -4 61 -8 4649 -10 10194 -4 9362 -5
10085 -21 10115 -9 18 -28 45 -42 61 -48 51 -160 31 -267 -48 -55 -40 -178
-103 -299 -151 -136 -54 -209 -99 -286 -179 -129 -132 -235 -199 -440 -280
-232 -91 -312 -137 -405 -230 -101 -100 -180 -167 -223 -189 -19 -10 -97 -39
-175 -65 -193 -64 -273 -116 -408 -264 -56 -62 -118 -124 -139 -138 -21 -14
-83 -38 -137 -53 -92 -26 -262 -103 -328 -149 -49 -35 -176 -138 -239 -194
-68 -61 -177 -119 -295 -158 -124 -41 -188 -76 -262 -143 -220 -202 -365 -292
-551 -342 -61 -17 -129 -41 -152 -55 -22 -13 -94 -74 -159 -135 -171 -160
-228 -194 -509 -310 -92 -37 -198 -124 -284 -232 -211 -262 -256 -398 -235
-710 8 -117 11 -1910 11 -6277 0 -4366 3 -6154 11 -6256 14 -177 -1 -267 -61
-390 -50 -101 -152 -248 -199 -286 -136 -109 -190 -146 -296 -202 -66 -35
-151 -74 -190 -87 -126 -41 -218 -101 -319 -208 -86 -92 -213 -171 -369 -232
-73 -28 -147 -57 -165 -65 -61 -28 -146 -96 -247 -200 -117 -119 -179 -155
-320 -184 -96 -19 -205 -68 -285 -126 -26 -19 -103 -93 -172 -164 -135 -140
-167 -161 -306 -205 -46 -14 -97 -33 -115 -42 -42 -22 -179 -117 -242 -169
-47 -38 -130 -95 -139 -95 -2 0 -18 -13 -35 -29 -40 -38 -162 -100 -286 -146
-159 -59 -188 -78 -330 -214 -129 -124 -137 -131 -266 -194 -74 -36 -164 -77
-200 -90 -114 -43 -147 -65 -262 -178 -127 -125 -205 -170 -362 -212 -50 -13
-131 -46 -180 -72 -79 -42 -107 -65 -230 -190 -155 -157 -186 -178 -345 -228
-52 -16 -117 -41 -145 -54 -65 -33 -213 -141 -294 -215 -57 -51 -189 -146
-246 -176 -11 -5 -66 -22 -123 -36 -56 -14 -124 -37 -150 -50 -26 -13 -106
-75 -176 -138 -229 -201 -271 -230 -439 -300 -131 -54 -190 -93 -291 -193
-108 -106 -216 -171 -349 -210 -92 -26 -221 -86 -297 -138 -25 -17 -103 -88
-175 -157 l-130 -126 -115 -37 c-63 -20 -121 -37 -127 -37 -7 0 -34 -15 -60
-34 -27 -18 -76 -48 -110 -65 -60 -30 -176 -126 -287 -237 -62 -62 -108 -86
-206 -109 -239 -54 -311 -94 -495 -273 -75 -73 -157 -146 -181 -163 -46 -31
-139 -76 -259 -125 -52 -21 -88 -45 -140 -94 -69 -65 -186 -160 -235 -191 -14
-9 -124 -58 -244 -110 -239 -101 -263 -116 -416 -263 -109 -105 -179 -145
-343 -200 -59 -20 -138 -52 -175 -70 -70 -36 -177 -132 -265 -238 -66 -80
-161 -131 -281 -153 -199 -37 -275 -84 -506 -317 -114 -114 -169 -149 -296
-187 -83 -24 -192 -92 -279 -173 -110 -101 -371 -253 -510 -298 -79 -24 -224
-112 -273 -164 -73 -79 -197 -183 -250 -210 -26 -13 -83 -36 -127 -51 -44 -15
-91 -33 -105 -41 -14 -7 -60 -29 -103 -48 -68 -31 -94 -51 -215 -170 -83 -81
-153 -141 -177 -151 -22 -9 -89 -30 -150 -45 -74 -19 -143 -46 -209 -81 -92
-48 -112 -65 -240 -197 -155 -158 -175 -172 -356 -238 -120 -43 -132 -50 -226
-122 -284 -218 -428 -306 -591 -358 -59 -19 -120 -43 -134 -52 -15 -9 -90 -76
-167 -148 -124 -116 -153 -138 -249 -187 -59 -30 -142 -67 -183 -81 -116 -42
-201 -97 -303 -200 -112 -113 -183 -156 -332 -201 -233 -70 -316 -121 -466
-285 -101 -110 -177 -163 -273 -191 -39 -11 -92 -28 -118 -38 -68 -27 -269
-164 -317 -216 -23 -25 -45 -45 -50 -45 -5 0 -41 -27 -80 -60 -88 -74 -142
-102 -290 -150 -141 -46 -222 -93 -313 -182 -83 -82 -176 -154 -222 -173 -46
-19 -127 -19 -173 0 -44 18 -157 108 -233 185 -72 72 -172 131 -290 170 -138
46 -206 82 -285 150 -38 33 -73 60 -76 60 -4 0 -31 22 -60 50 -30 27 -78 64
-107 82 -29 18 -74 47 -100 64 -75 49 -121 70 -207 93 -133 37 -184 72 -334
235 -116 125 -218 184 -432 252 -134 43 -224 101 -344 221 -95 96 -144 126
-303 189 -120 47 -277 139 -347 203 -233 213 -229 210 -375 260 -142 49 -238
103 -378 210 -41 31 -99 73 -129 94 -31 21 -74 53 -97 71 -52 42 -96 64 -221
111 -161 60 -182 74 -290 191 -55 60 -118 127 -140 149 -55 56 -220 138 -320
160 -44 9 -114 30 -155 47 -67 26 -87 41 -190 142 -136 133 -167 158 -238 185
-30 12 -86 36 -125 55 -40 18 -95 41 -123 50 -88 29 -230 131 -331 239 -60 64
-147 116 -283 168 -52 20 -122 49 -155 64 -71 32 -230 141 -300 205 -133 123
-218 175 -336 206 -145 39 -178 61 -339 223 -80 81 -165 160 -190 177 -60 41
-157 78 -255 98 -138 28 -193 62 -340 211 -71 73 -150 144 -175 158 -60 34
-172 80 -235 96 -27 7 -91 32 -142 57 -81 38 -109 60 -223 168 -144 137 -176
156 -505 301 -149 66 -243 127 -355 233 -55 51 -85 70 -161 101 -207 85 -265
124 -424 291 -113 119 -120 124 -230 184 -81 45 -101 52 -235 81 -110 25 -162
55 -254 148 -123 124 -183 171 -271 215 -44 22 -89 49 -100 59 -11 10 -69 33
-130 52 -153 46 -195 71 -313 189 -57 57 -134 123 -173 148 -76 49 -224 121
-305 148 -88 29 -245 129 -320 204 -82 82 -177 140 -299 182 -141 50 -231 107
-340 217 -89 90 -229 206 -270 224 -22 10 -89 32 -150 49 -60 18 -123 39 -140
48 -53 27 -168 108 -227 160 -62 54 -252 189 -308 217 -19 10 -84 35 -145 57
-166 59 -194 78 -327 219 -105 111 -132 133 -214 179 -53 29 -157 74 -232 100
-75 26 -152 55 -171 65 -19 9 -89 68 -155 129 -139 128 -150 136 -248 175
-114 46 -267 120 -326 158 -30 19 -104 80 -166 136 -153 141 -168 152 -292
198 -146 54 -263 112 -306 152 -20 18 -52 41 -73 52 -20 11 -65 43 -99 71 -34
28 -112 83 -172 122 -85 55 -129 76 -204 97 -149 43 -194 70 -278 168 -111
130 -223 232 -292 267 -34 17 -114 44 -177 60 -159 41 -219 75 -328 185 -127
129 -201 178 -372 247 -219 88 -335 161 -463 293 -76 78 -151 122 -276 164
-88 30 -286 128 -337 167 -178 137 -186 145 -256 245 -124 175 -164 280 -162
419 1 41 5 2919 10 6395 4 3476 12 6339 16 6363 11 63 -10 215 -44 314 -40
117 -146 274 -267 394 -96 95 -98 96 -346 213 -166 78 -238 126 -378 250 -136
121 -187 153 -300 187 -98 30 -267 118 -337 177 -26 21 -73 55 -103 75 -30 19
-83 59 -118 89 -74 62 -144 100 -277 148 -120 43 -163 69 -260 153 -186 162
-241 202 -356 262 -81 42 -150 69 -214 85 -120 29 -164 59 -275 179 -137 149
-240 214 -445 280 -146 48 -188 74 -334 211 -139 131 -170 149 -425 251 -195
78 -311 151 -436 275 -101 100 -175 145 -329 201 -58 21 -128 52 -154 68 -27
17 -52 30 -56 30 -5 0 -26 12 -47 27 -101 69 -155 93 -209 93 -43 0 -60 -5
-84 -25z"/>
</g>
</svg>
