<?xml version="1.0" standalone="no"?>
<!DOCTYPE svg PUBLIC "-//W3C//DTD SVG 20010904//EN"
 "http://www.w3.org/TR/2001/REC-SVG-20010904/DTD/svg10.dtd">
<svg version="1.0" xmlns="http://www.w3.org/2000/svg"
 width="2133.000000pt" height="2133.000000pt" viewBox="0 0 2133.000000 2133.000000"
 preserveAspectRatio="xMidYMid meet">
<linearGradient id="Gradient" x1="0" x2="1" y1="0" y2="1">
    <stop offset="0%" stop-color="#ff0074"/>
    <stop offset="100%" stop-color="#ffbb00"/>
</linearGradient>
<g transform="translate(0.000000,2133.000000) scale(0.100000,-0.100000)"
fill="url(#Gradient)" stroke="none">
<path d="M8443 20993 c-47 -4 -52 -6 -55 -29 -2 -20 -17 -33 -68 -60 -60 -31
-70 -33 -125 -28 -59 6 -62 5 -104 -30 -59 -49 -67 -53 -136 -61 -48 -6 -67
-14 -98 -41 -20 -19 -47 -35 -60 -35 -12 -1 -37 -2 -55 -3 -26 -1 -41 -10 -68
-43 -24 -29 -49 -46 -85 -58 -27 -9 -55 -26 -62 -37 -7 -11 -32 -30 -57 -43
-25 -13 -57 -36 -71 -51 -15 -16 -55 -54 -90 -84 -60 -53 -85 -78 -250 -254
-75 -81 -155 -193 -178 -252 -7 -17 -29 -47 -50 -67 -33 -31 -39 -44 -43 -88
-5 -44 -11 -57 -39 -79 -29 -25 -33 -35 -40 -94 -5 -55 -12 -73 -35 -97 -34
-36 -63 -37 -198 -9 -97 20 -136 35 -191 74 -29 21 -40 21 -462 23 l-432 2
-43 -30 c-48 -33 -113 -55 -206 -69 -46 -8 -74 -19 -106 -44 -25 -19 -67 -39
-94 -46 -31 -7 -60 -22 -77 -40 -16 -16 -50 -37 -76 -45 -27 -9 -65 -28 -86
-42 -21 -14 -56 -34 -78 -43 -22 -10 -64 -42 -92 -71 -29 -30 -115 -117 -191
-194 -147 -149 -198 -215 -209 -266 -3 -18 -23 -49 -44 -70 -47 -47 -59 -69
-59 -109 0 -22 -11 -42 -40 -72 -30 -32 -41 -52 -45 -87 -10 -76 -13 -84 -45
-133 -25 -38 -33 -63 -40 -130 -13 -116 -37 -246 -55 -293 -24 -65 -47 -195
-44 -249 4 -93 1 -107 -38 -146 -30 -30 -52 -40 -107 -53 -44 -10 -78 -25 -95
-41 -14 -13 -48 -34 -75 -45 -26 -12 -60 -30 -75 -40 -14 -10 -45 -24 -67 -30
-29 -8 -50 -23 -70 -49 -15 -20 -36 -43 -46 -50 -96 -70 -349 -333 -412 -429
-15 -23 -34 -44 -42 -47 -7 -3 -19 -27 -25 -53 -8 -30 -27 -63 -52 -90 -31
-34 -40 -52 -46 -97 -5 -35 -18 -70 -36 -96 -19 -27 -37 -78 -55 -154 -15 -62
-39 -138 -53 -167 -23 -50 -26 -71 -36 -274 -7 -150 -8 -260 -1 -345 6 -69 8
-154 4 -190 -5 -59 -3 -68 20 -100 46 -62 66 -112 66 -168 0 -53 17 -100 50
-137 26 -28 92 -192 97 -240 5 -47 -10 -65 -68 -84 -19 -6 -45 -25 -58 -41
-12 -17 -39 -41 -60 -54 -47 -30 -282 -265 -321 -322 -16 -23 -40 -48 -54 -58
-14 -9 -26 -26 -26 -37 0 -25 -23 -71 -45 -89 -9 -8 -28 -37 -42 -64 -14 -28
-33 -60 -43 -71 -11 -11 -30 -57 -44 -101 -15 -45 -33 -87 -42 -95 -28 -23
-46 -71 -51 -137 -2 -35 -20 -112 -40 -171 -30 -93 -36 -125 -44 -261 -17
-285 -1 -446 60 -637 11 -35 23 -93 27 -130 7 -68 26 -123 44 -123 17 0 40
-58 40 -98 0 -73 -11 -100 -59 -144 -103 -96 -255 -255 -280 -293 -14 -22 -42
-59 -63 -82 -21 -24 -38 -47 -38 -53 0 -6 -18 -30 -41 -55 -26 -28 -44 -60
-51 -87 -6 -29 -22 -55 -48 -81 -32 -30 -41 -46 -46 -87 -4 -33 -16 -63 -34
-85 -19 -24 -34 -64 -49 -129 -12 -52 -29 -100 -37 -107 -27 -22 -46 -72 -50
-127 -3 -69 -60 -213 -86 -220 -17 -4 -18 -24 -18 -373 0 -313 2 -369 14 -369
8 0 29 -25 47 -56 25 -44 34 -74 41 -142 6 -55 16 -98 29 -117 38 -60 59 -111
59 -147 0 -45 15 -86 41 -114 11 -11 33 -56 50 -100 17 -43 39 -88 49 -99 10
-11 25 -37 34 -58 8 -21 31 -57 51 -79 19 -23 35 -51 35 -63 0 -44 22 -81 77
-130 76 -68 243 -238 243 -247 0 -5 6 -8 14 -8 18 0 26 -22 26 -70 0 -52 -14
-81 -54 -108 -32 -22 -161 -152 -309 -311 -54 -59 -80 -96 -88 -125 -6 -22
-24 -55 -39 -72 -15 -18 -35 -55 -44 -82 -10 -28 -24 -56 -32 -63 -25 -21 -51
-80 -58 -134 -4 -33 -16 -62 -36 -87 -41 -51 -50 -78 -50 -159 0 -45 -6 -81
-16 -101 -18 -35 -52 -67 -71 -68 -10 0 -13 -74 -13 -333 l0 -334 26 -13 c44
-24 66 -66 74 -143 9 -77 16 -98 55 -162 13 -22 27 -60 30 -85 10 -76 13 -84
48 -121 25 -26 36 -49 41 -83 6 -35 18 -59 51 -96 24 -27 46 -59 50 -72 4 -13
16 -33 26 -46 10 -13 27 -43 39 -68 12 -24 29 -48 38 -53 18 -10 321 -310 359
-355 14 -17 32 -26 51 -26 16 0 40 -8 53 -19 13 -10 47 -30 76 -44 29 -15 59
-40 69 -56 19 -32 39 -41 92 -41 39 0 66 -13 107 -50 22 -20 44 -29 85 -34 31
-3 96 -23 146 -45 79 -34 100 -39 189 -43 134 -5 165 -27 165 -118 0 -47 -13
-83 -46 -132 -25 -35 -26 -47 -40 -292 -13 -225 -13 -285 0 -488 15 -228 15
-231 44 -272 37 -53 43 -68 52 -148 6 -52 14 -74 38 -105 17 -21 38 -57 46
-81 8 -23 31 -63 51 -88 24 -32 35 -57 35 -80 0 -26 10 -43 43 -76 43 -43 66
-70 142 -172 22 -30 57 -77 78 -104 21 -28 55 -61 75 -73 20 -13 51 -34 68
-48 18 -14 60 -48 95 -76 35 -27 88 -74 116 -102 48 -48 57 -53 97 -53 38 0
48 -5 71 -32 36 -43 62 -57 105 -58 28 0 44 -8 75 -40 38 -39 40 -40 109 -38
73 1 118 -14 191 -66 29 -21 38 -21 465 -21 l435 0 63 39 c57 36 73 41 145 46
78 5 85 7 135 47 41 33 65 44 104 49 38 5 61 15 88 40 21 19 53 41 73 49 20 8
52 26 73 40 34 23 38 24 63 9 49 -30 103 -112 124 -188 10 -39 25 -78 33 -86
7 -9 25 -42 40 -75 15 -33 40 -80 55 -104 15 -24 31 -56 34 -72 4 -15 23 -43
43 -60 20 -18 53 -56 72 -85 88 -132 128 -183 185 -239 34 -33 69 -73 79 -90
18 -30 65 -66 261 -198 28 -19 56 -42 64 -51 8 -10 35 -28 60 -41 25 -13 59
-37 75 -53 18 -20 43 -33 70 -38 30 -5 52 -18 84 -50 39 -40 47 -44 93 -44 53
0 77 -9 121 -45 15 -13 59 -30 99 -39 41 -9 106 -35 148 -57 71 -39 78 -41
135 -35 53 5 66 3 101 -19 22 -13 50 -29 63 -34 14 -7 22 -19 22 -34 0 -23 4
-24 92 -31 117 -8 537 -8 617 0 59 7 61 8 61 35 0 23 5 29 33 34 17 4 50 17
72 28 29 15 60 21 117 21 68 1 80 4 105 27 45 43 87 59 152 59 51 0 65 4 93
28 59 50 66 53 130 68 41 10 73 25 93 43 17 15 50 36 75 45 25 10 59 29 77 42
17 13 41 24 52 24 33 0 67 20 85 51 10 16 41 47 69 69 196 151 301 251 412
391 52 65 99 121 105 124 6 3 26 31 45 61 19 30 42 57 50 60 8 3 21 30 30 59
11 38 25 61 50 82 29 23 37 37 44 81 5 35 17 62 33 80 34 36 48 65 48 99 1 39
23 97 55 142 21 31 29 61 40 144 10 74 22 121 41 159 15 29 32 69 38 88 7 25
12 2474 16 8245 l5 8210 34 54 c27 41 35 67 40 119 5 54 13 76 39 112 17 25
39 72 47 105 9 32 26 73 39 90 13 16 35 56 50 87 15 32 38 66 51 77 14 10 34
40 45 67 35 81 283 345 361 385 21 10 40 23 44 29 3 5 24 14 47 20 22 6 50 22
62 34 11 13 32 35 45 50 19 22 31 26 78 26 49 0 57 3 86 34 49 51 71 59 169
57 69 -1 97 3 126 17 50 26 190 46 258 38 30 -3 83 -18 117 -33 55 -23 74 -26
170 -25 117 2 161 -9 207 -53 31 -29 71 -45 115 -45 26 0 46 -10 84 -44 27
-24 63 -46 82 -50 34 -6 123 -65 216 -141 68 -56 234 -240 257 -283 10 -21 26
-46 36 -57 10 -11 32 -47 49 -80 17 -33 40 -71 52 -86 11 -14 28 -58 39 -98
10 -40 25 -80 33 -89 36 -41 49 -97 54 -227 5 -122 7 -133 34 -176 16 -25 32
-61 35 -80 10 -50 20 -65 61 -90 21 -12 52 -35 70 -52 38 -36 104 -50 187 -41
48 6 64 13 91 40 18 18 52 42 76 54 24 12 58 33 75 46 18 13 51 27 75 30 29 5
56 19 83 44 59 54 83 64 154 62 56 0 67 3 96 28 18 16 45 34 59 39 41 16 328
24 463 13 121 -10 149 -18 207 -64 23 -18 41 -23 95 -23 63 0 71 -2 110 -36
27 -23 58 -39 83 -43 28 -5 54 -19 87 -50 26 -24 61 -51 77 -60 69 -38 148
-105 202 -171 104 -127 122 -152 147 -208 13 -30 32 -60 42 -68 34 -25 45 -46
54 -104 6 -35 19 -70 35 -91 48 -63 56 -95 54 -227 -2 -108 0 -128 20 -174 26
-60 25 -97 -8 -183 -17 -45 -20 -78 -21 -190 0 -155 9 -199 49 -233 16 -13 39
-43 50 -65 23 -45 51 -65 75 -56 30 11 83 -6 131 -43 44 -35 52 -38 135 -43
82 -5 91 -7 122 -36 20 -19 49 -34 73 -39 52 -9 84 -26 118 -64 15 -17 35 -31
45 -31 9 0 32 -9 50 -20 46 -28 299 -284 319 -323 9 -18 27 -46 40 -63 13 -17
31 -53 40 -80 9 -27 31 -68 49 -91 44 -53 54 -82 54 -150 0 -47 5 -61 32 -96
40 -50 47 -101 47 -342 1 -207 -10 -279 -49 -342 -23 -35 -30 -59 -30 -95 0
-56 -18 -97 -56 -127 -20 -16 -28 -32 -31 -68 -4 -40 -13 -56 -49 -93 -24 -25
-49 -58 -56 -75 -21 -48 -87 -146 -130 -193 l-39 -43 6 -87 c9 -130 13 -147
41 -173 14 -13 34 -41 45 -61 23 -45 25 -46 89 -58 38 -7 64 -21 97 -50 37
-32 53 -40 86 -40 35 0 46 -6 86 -50 25 -27 55 -50 66 -50 31 -1 58 -20 150
-104 97 -88 189 -198 212 -254 8 -20 34 -57 58 -82 28 -31 45 -59 49 -85 5
-22 23 -65 41 -95 25 -42 37 -78 49 -150 9 -52 26 -122 38 -155 19 -53 22 -79
22 -225 0 -155 -1 -169 -26 -232 -15 -36 -32 -103 -38 -149 -7 -63 -16 -92
-37 -122 -45 -63 -63 -100 -63 -129 0 -15 -15 -46 -35 -73 -20 -25 -45 -70
-56 -99 -10 -29 -29 -62 -40 -72 -32 -29 -49 -69 -49 -117 0 -38 5 -48 41 -82
23 -21 50 -57 60 -79 20 -45 53 -80 84 -90 11 -3 38 -21 60 -41 22 -19 43 -35
48 -35 4 0 34 -25 67 -55 33 -30 63 -55 68 -55 4 0 22 -22 39 -49 18 -26 48
-61 68 -77 20 -16 52 -45 71 -64 19 -19 52 -53 73 -75 22 -22 49 -59 60 -82
11 -23 25 -44 30 -47 5 -4 17 -30 27 -59 9 -28 33 -71 52 -95 24 -30 38 -61
48 -107 8 -36 25 -83 40 -104 35 -54 54 -123 54 -200 0 -37 6 -91 14 -121 46
-180 48 -241 12 -397 -15 -65 -26 -142 -26 -185 -1 -97 -12 -142 -51 -196 -25
-34 -35 -61 -40 -105 -6 -51 -13 -65 -48 -101 -35 -35 -41 -48 -41 -83 0 -37
-5 -46 -44 -79 -25 -21 -50 -51 -57 -68 -33 -84 -163 -242 -274 -333 -33 -27
-96 -69 -139 -93 -44 -25 -98 -65 -121 -88 -33 -35 -52 -46 -91 -53 -31 -6
-56 -17 -67 -31 -10 -13 -30 -36 -44 -53 -14 -16 -29 -41 -35 -54 -15 -42 -22
-213 -9 -252 7 -21 45 -68 101 -123 88 -85 92 -88 141 -91 46 -2 56 -7 94 -48
24 -24 56 -48 71 -51 15 -4 39 -15 53 -25 14 -10 46 -28 69 -40 87 -44 342
-322 342 -373 0 -29 17 -55 61 -95 35 -32 39 -40 39 -83 0 -40 6 -55 35 -90
40 -48 55 -94 55 -167 0 -29 11 -96 25 -149 32 -123 32 -190 0 -284 -19 -56
-25 -94 -25 -159 0 -106 -12 -152 -56 -209 -21 -27 -34 -56 -34 -74 0 -40 -22
-88 -55 -118 -15 -14 -40 -52 -56 -85 -16 -33 -43 -79 -61 -102 -80 -101 -135
-162 -163 -178 -16 -10 -45 -32 -64 -48 -19 -16 -47 -33 -62 -39 -15 -5 -39
-24 -53 -42 -16 -22 -45 -41 -84 -55 -33 -13 -70 -34 -83 -47 -25 -27 -76 -44
-132 -44 -26 0 -61 -12 -105 -37 l-67 -38 -260 0 c-143 0 -309 4 -370 9 -149
11 -206 -5 -286 -81 l-56 -54 -7 -97 c-8 -116 4 -182 45 -246 16 -26 29 -54
29 -63 0 -9 24 -40 54 -69 39 -37 58 -65 66 -96 7 -23 25 -57 40 -75 31 -35
34 -43 49 -125 6 -31 22 -74 36 -96 44 -67 64 -331 40 -554 -13 -122 -18 -143
-50 -203 -25 -48 -35 -79 -35 -111 0 -40 -5 -50 -44 -90 -36 -36 -45 -53 -51
-93 -5 -36 -15 -56 -36 -77 -17 -16 -40 -44 -51 -62 -11 -18 -32 -39 -48 -47
-15 -8 -41 -36 -59 -63 -17 -27 -51 -63 -76 -81 -25 -18 -57 -48 -71 -67 -15
-19 -47 -48 -73 -66 -25 -17 -52 -39 -59 -49 -10 -14 -26 -19 -62 -19 -45 0
-51 -3 -87 -46 l-40 -45 -86 -3 c-81 -3 -88 -5 -123 -35 -20 -18 -46 -36 -58
-41 -38 -14 -317 -21 -457 -12 -139 10 -163 17 -222 64 -22 18 -41 22 -90 23
-61 0 -117 22 -117 45 0 14 -55 40 -83 40 -13 0 -36 13 -53 31 -16 17 -50 42
-77 55 -50 26 -177 145 -217 204 -41 60 -137 148 -177 160 -21 7 -59 25 -84
41 -71 45 -98 46 -173 10 -36 -17 -71 -31 -78 -31 -29 0 -76 -39 -83 -68 -3
-17 -23 -51 -42 -77 -35 -44 -37 -50 -44 -153 -12 -169 -27 -251 -55 -301 -15
-27 -29 -73 -34 -110 -7 -54 -14 -69 -45 -101 -32 -32 -38 -47 -44 -100 -7
-55 -12 -66 -44 -94 -26 -22 -42 -46 -52 -82 -8 -29 -23 -58 -32 -65 -9 -8
-29 -33 -44 -57 -29 -46 -165 -198 -238 -266 -24 -23 -65 -62 -92 -88 -26 -26
-61 -54 -76 -62 -15 -8 -41 -29 -58 -46 -16 -18 -52 -42 -80 -55 -27 -12 -59
-32 -69 -44 -11 -11 -50 -30 -87 -41 -41 -12 -73 -28 -79 -39 -18 -34 -73 -52
-135 -45 -54 7 -57 6 -93 -28 -58 -56 -70 -59 -205 -56 -113 2 -128 0 -202
-26 -114 -40 -170 -42 -285 -11 -152 42 -171 45 -242 39 -104 -10 -151 1 -204
47 -47 40 -51 42 -121 39 -36 -1 -48 4 -86 39 -35 32 -52 41 -80 41 -37 0 -87
18 -87 31 0 4 -13 21 -29 38 -20 22 -38 31 -60 31 -21 0 -43 11 -68 34 -21 18
-58 42 -83 53 -25 11 -60 34 -79 52 -39 35 -79 45 -156 39 -47 -4 -60 -10 -99
-46 -25 -23 -53 -42 -61 -42 -23 0 -65 -46 -65 -70 0 -12 -14 -52 -30 -90 -33
-75 -34 -70 20 -185 38 -81 82 -131 148 -170 17 -10 39 -33 48 -51 19 -35 50
-54 89 -54 14 0 45 -15 70 -34 24 -19 57 -37 73 -41 16 -3 40 -17 53 -31 20
-22 67 -40 150 -58 14 -3 47 -24 72 -47 43 -37 52 -41 100 -40 74 0 119 -14
168 -55 42 -35 46 -36 100 -30 49 6 62 3 110 -22 30 -16 64 -31 77 -34 15 -4
22 -14 22 -31 0 -23 2 -24 107 -30 137 -9 454 -9 571 -1 88 7 92 8 92 31 0 15
8 27 23 34 12 5 40 21 62 34 35 22 48 24 101 19 57 -6 64 -4 136 35 43 23 105
48 142 56 37 7 79 22 93 32 68 48 80 53 131 53 50 0 56 3 89 40 26 28 51 44
89 55 32 9 59 24 67 36 6 11 37 33 68 49 30 16 62 36 70 46 8 9 37 32 64 51
200 135 244 168 261 198 10 16 48 59 84 95 62 61 92 100 180 236 19 30 52 68
72 84 20 17 39 43 43 59 3 16 19 48 34 72 15 24 40 71 55 104 15 33 33 66 41
75 7 8 21 45 30 81 12 46 30 85 59 123 70 94 101 104 148 47 13 -15 43 -35 67
-45 25 -9 55 -25 68 -36 13 -10 47 -24 76 -30 58 -14 88 -30 130 -69 24 -22
40 -27 112 -32 75 -4 90 -9 147 -45 l63 -39 435 0 c427 0 436 0 465 21 73 52
118 67 191 66 69 -2 71 -1 109 38 30 31 47 40 73 40 41 0 67 13 108 56 26 28
39 34 73 34 37 0 47 6 94 53 28 28 81 75 116 102 35 28 77 62 95 76 17 14 47
35 67 47 33 20 110 109 152 176 23 36 88 114 145 173 29 31 42 53 42 73 0 16
16 51 36 81 20 30 43 71 50 92 8 22 28 57 45 78 25 32 33 53 39 107 7 67 24
112 63 163 31 43 51 399 37 689 -13 279 -17 314 -41 344 -30 39 -49 91 -49
138 0 85 51 118 179 118 71 0 90 4 173 40 51 22 117 43 148 46 41 5 63 14 85
34 43 40 68 50 119 50 45 0 66 12 86 51 6 10 34 31 63 45 29 15 63 35 76 45
13 11 37 19 53 19 17 0 36 9 48 22 36 42 86 93 234 238 141 137 179 186 241
304 10 21 29 45 41 55 29 23 54 74 54 110 0 22 11 42 39 71 34 35 40 49 49
111 7 45 20 85 35 108 30 45 47 101 47 154 0 50 32 111 70 134 l30 17 0 333
c0 278 -2 333 -14 333 -10 0 -70 56 -77 73 0 1 -4 48 -8 103 -6 95 -9 104 -39
138 -17 20 -34 46 -36 59 -21 102 -32 133 -55 161 -15 17 -35 53 -45 80 -10
26 -31 62 -46 80 -15 17 -33 51 -40 74 -7 27 -27 59 -53 86 -23 24 -59 63 -81
87 -71 82 -241 250 -268 266 -33 20 -48 52 -48 103 0 48 8 70 26 70 8 0 14 4
14 8 0 7 129 138 252 254 31 30 59 66 62 81 3 15 8 39 11 53 3 14 17 37 32 52
14 14 35 46 47 72 12 25 31 58 43 74 12 15 29 51 38 79 9 29 32 75 51 103 23
34 38 71 44 109 13 78 18 94 51 140 23 33 30 56 37 132 8 78 15 101 43 148 18
30 39 55 46 55 10 0 13 75 13 370 0 303 -2 370 -13 370 -25 0 -87 147 -87 206
0 50 -15 91 -53 147 -15 22 -30 65 -38 109 -9 50 -23 86 -46 119 -18 27 -33
60 -33 74 0 38 -25 92 -49 104 -25 14 -51 61 -51 93 0 12 -14 36 -31 54 -17
17 -45 52 -62 77 -74 105 -96 133 -168 215 -42 48 -113 121 -159 162 -91 82
-110 115 -110 189 0 42 5 56 35 91 37 45 38 46 54 158 6 40 20 99 31 130 51
151 54 183 53 462 l-1 265 -41 131 c-23 72 -41 152 -41 176 0 58 -16 106 -47
139 -13 15 -35 62 -48 104 -14 43 -33 88 -44 99 -10 12 -29 41 -41 66 -13 25
-35 60 -51 77 -15 18 -31 48 -35 68 -3 20 -17 44 -32 56 -14 11 -36 34 -48 52
-33 49 -300 315 -333 332 -16 8 -39 28 -50 44 -12 16 -38 35 -59 42 -50 16
-72 37 -72 69 0 34 76 228 100 255 32 36 50 83 50 132 1 62 19 110 60 161 32
40 33 43 27 109 -4 37 -2 122 4 188 9 89 8 179 0 350 -11 212 -14 234 -37 279
-14 27 -38 103 -54 168 -20 79 -38 130 -56 153 -16 22 -28 54 -33 89 -6 45
-15 63 -49 100 -26 28 -43 58 -48 83 -7 40 -13 47 -198 258 -97 110 -215 226
-283 277 -10 7 -31 30 -46 50 -19 26 -40 41 -70 49 -23 6 -49 17 -57 25 -9 7
-43 25 -75 39 -33 15 -72 38 -86 52 -17 15 -51 30 -95 40 -55 13 -77 23 -106
53 -40 39 -41 46 -38 155 1 51 -31 220 -49 252 -11 22 -40 181 -51 286 -7 62
-15 88 -40 125 -32 49 -35 57 -45 134 -5 36 -14 55 -42 81 -27 27 -36 45 -40
81 -5 38 -14 55 -49 90 -24 24 -46 57 -50 73 -16 70 -68 131 -406 472 -29 29
-73 62 -97 72 -23 11 -54 28 -68 39 -14 10 -50 29 -81 40 -31 12 -72 36 -92
54 -23 21 -52 35 -78 39 -23 4 -60 22 -86 42 -34 26 -62 37 -108 45 -93 14
-158 36 -206 69 l-43 30 -432 -2 c-422 -2 -433 -2 -462 -23 -56 -39 -94 -54
-192 -74 -139 -28 -166 -27 -197 11 -14 17 -26 36 -27 42 -1 7 -3 35 -5 62 -3
43 -9 55 -40 81 -31 27 -37 39 -42 83 -4 44 -10 57 -43 88 -21 20 -45 52 -53
72 -45 113 -217 312 -455 531 -51 47 -110 94 -131 105 -21 11 -48 32 -59 46
-13 16 -35 29 -58 34 -26 5 -51 21 -85 56 -37 39 -55 50 -76 48 -54 -4 -73 2
-109 35 -31 27 -50 35 -98 41 -69 8 -77 12 -136 61 -42 35 -46 36 -100 30 -50
-5 -64 -2 -127 29 -60 28 -72 38 -72 58 0 23 -4 24 -77 31 -98 8 -526 8 -587
0 -40 -6 -46 -10 -46 -30 0 -17 -12 -32 -42 -51 -37 -23 -57 -28 -138 -33 -91
-5 -97 -7 -143 -43 -39 -30 -57 -37 -92 -37 -58 0 -92 -14 -135 -54 -19 -19
-57 -41 -83 -49 -27 -9 -64 -30 -83 -47 -19 -16 -43 -30 -54 -30 -32 0 -66
-20 -84 -51 -9 -16 -32 -36 -49 -46 -33 -17 -407 -385 -407 -401 0 -5 -22 -35
-50 -66 -27 -31 -50 -62 -50 -68 0 -6 -12 -27 -27 -47 -16 -20 -35 -52 -44
-72 -9 -19 -30 -51 -47 -70 -17 -19 -36 -56 -43 -82 -6 -28 -25 -61 -45 -82
-20 -21 -36 -50 -39 -73 -11 -62 -35 -130 -52 -144 -24 -20 -42 -69 -53 -149
-7 -48 -20 -88 -38 -118 -16 -25 -33 -55 -38 -66 -5 -12 -11 -3171 -14 -8231
l-5 -8211 -37 -60 c-37 -59 -38 -65 -38 -151 0 -87 -1 -91 -36 -142 -24 -35
-41 -76 -50 -119 -9 -41 -27 -84 -48 -116 -19 -27 -43 -68 -54 -91 -11 -22
-28 -46 -37 -54 -9 -7 -25 -34 -36 -60 -11 -26 -36 -62 -55 -81 -19 -18 -34
-38 -34 -43 -1 -6 -16 -22 -34 -36 -18 -14 -66 -61 -106 -105 -41 -44 -91 -93
-112 -110 -20 -16 -68 -55 -105 -86 -42 -34 -82 -58 -104 -63 -25 -4 -48 -20
-76 -51 -38 -43 -43 -45 -95 -45 -53 0 -56 -1 -82 -40 -28 -43 -58 -56 -111
-47 -32 5 -115 -25 -115 -42 0 -4 -15 -15 -32 -26 -28 -16 -55 -19 -173 -21
-129 -1 -147 -4 -235 -33 -111 -38 -159 -37 -268 6 -60 24 -81 27 -197 28
-170 1 -159 -1 -210 46 -42 39 -48 41 -91 36 -60 -6 -100 6 -138 42 -19 18
-51 33 -85 41 -31 7 -67 25 -86 41 -18 16 -50 36 -71 45 -37 16 -68 39 -198
156 -72 64 -266 259 -266 267 0 4 -9 12 -20 18 -10 7 -34 36 -53 65 -18 29
-41 59 -49 66 -9 7 -22 35 -28 62 -8 35 -22 58 -43 76 -43 36 -56 61 -57 111
0 34 -7 50 -39 87 -32 36 -40 55 -46 103 -4 34 -18 78 -35 108 -31 55 -46 136
-59 318 -7 101 -9 109 -38 140 -16 17 -36 48 -43 67 -20 53 -37 67 -88 75 -25
4 -68 15 -94 26 -27 10 -55 19 -63 19 -13 0 -57 -18 -165 -69 -61 -28 -144
-100 -195 -169 -58 -80 -117 -129 -191 -162 -35 -16 -64 -34 -64 -39 0 -20
-62 -71 -86 -71 -29 0 -84 -26 -84 -40 0 -23 -50 -41 -118 -43 -61 -2 -75 -6
-99 -28 -15 -15 -39 -32 -52 -39 -57 -29 -562 -36 -615 -8 -10 6 -39 25 -63
44 -42 32 -49 34 -123 34 l-79 0 -37 45 c-33 41 -40 45 -81 45 -36 0 -53 7
-91 38 -26 20 -56 42 -67 48 -11 6 -30 25 -41 42 -12 18 -44 50 -72 72 -28 21
-65 60 -82 85 -17 25 -44 52 -60 60 -16 8 -35 25 -41 38 -6 12 -28 40 -49 62
-30 32 -39 50 -43 90 -4 43 -11 55 -47 86 -38 33 -42 41 -50 103 -6 46 -16 79
-34 104 -43 63 -51 125 -51 397 0 266 6 306 50 370 13 20 26 54 30 78 12 83
16 94 45 125 15 17 36 56 45 87 12 44 23 60 51 78 27 17 47 46 87 127 l52 105
-1 122 0 122 -45 49 c-59 65 -81 77 -169 96 -66 13 -87 13 -175 1 -62 -9 -184
-15 -321 -15 -239 0 -280 6 -350 54 -26 17 -52 26 -79 26 -60 0 -116 19 -152
51 -18 15 -51 34 -74 40 -22 7 -55 28 -72 47 -18 18 -45 40 -60 48 -61 32
-165 116 -217 175 -76 86 -138 176 -145 210 -4 15 -26 48 -49 71 -36 37 -44
52 -49 96 -4 37 -15 65 -35 90 -49 62 -54 81 -59 196 -4 83 -11 131 -30 189
-29 86 -28 153 2 257 13 45 21 104 34 262 1 3 19 29 41 57 34 43 40 58 40 98
0 42 4 50 45 89 32 29 50 56 60 91 8 27 23 58 33 68 9 11 29 36 42 55 46 66
224 232 275 257 136 67 159 82 185 113 22 27 36 34 83 41 53 7 62 13 147 90
109 100 115 114 107 258 -6 123 -11 139 -69 204 -34 37 -54 50 -96 61 -39 11
-63 26 -97 60 -24 25 -51 46 -59 46 -8 0 -27 11 -43 24 -15 13 -46 32 -68 44
-96 48 -301 272 -346 377 -7 17 -35 51 -61 76 -43 40 -48 50 -48 88 0 36 -6
49 -36 79 -42 42 -54 69 -54 121 0 28 -9 49 -35 83 -39 50 -55 112 -55 219 0
38 -11 113 -25 171 -14 57 -25 126 -25 153 0 50 20 169 40 235 5 19 10 65 10
102 0 95 16 157 55 218 23 36 36 70 41 108 5 43 14 63 41 93 19 20 45 65 58
100 14 34 31 69 39 78 7 9 21 32 31 51 15 31 55 77 120 140 29 27 140 140 174
175 74 77 198 175 260 206 34 18 48 33 63 68 11 25 40 66 63 91 65 67 65 121
0 204 -25 32 -45 66 -45 75 0 9 -20 47 -44 83 -26 40 -45 83 -49 108 -3 26
-18 56 -40 83 -38 46 -57 100 -57 160 0 21 -14 79 -32 130 -31 88 -32 98 -32
247 0 136 3 162 22 207 12 29 30 101 41 160 15 86 27 120 55 167 20 33 36 68
36 78 0 30 27 75 59 97 16 12 35 38 41 59 17 52 88 141 194 246 100 96 140
126 172 126 13 0 36 16 55 38 41 47 65 61 106 62 23 0 45 10 70 34 49 43 75
56 113 56 34 0 71 31 102 85 10 17 27 42 40 58 18 23 23 42 26 122 5 102 -6
148 -39 166 -10 5 -31 31 -45 57 -15 26 -35 56 -45 67 -9 11 -24 36 -32 56 -8
20 -35 55 -61 79 -41 39 -46 48 -46 87 0 36 -6 50 -39 86 -34 37 -39 50 -44
105 -4 47 -13 75 -37 113 -43 66 -54 168 -47 421 6 193 9 208 53 261 19 22 24
41 24 81 0 68 15 113 51 151 16 17 40 58 53 90 37 93 89 172 179 268 96 104
228 215 266 223 14 4 42 23 61 44 28 29 48 40 92 49 33 7 66 22 80 35 38 37
63 46 135 46 68 0 74 2 149 55 17 12 51 22 88 25 56 5 62 8 81 39 11 18 40 56
65 83 l45 50 3 162 c3 147 2 167 -18 221 -34 90 -35 116 -9 171 20 44 23 65
23 190 l1 141 37 55 c23 33 42 75 48 106 11 61 20 80 50 107 12 11 33 42 47
68 58 116 178 257 280 333 40 30 78 54 83 54 6 0 30 20 54 44 30 32 58 49 96
60 32 10 68 30 88 49 31 30 37 32 106 32 68 0 75 2 109 32 57 50 95 56 367 57
268 1 297 -4 345 -54 26 -28 34 -30 98 -30 77 0 95 -7 154 -61 26 -23 56 -40
80 -45 21 -3 61 -22 90 -40 28 -19 56 -34 62 -34 6 0 33 -20 60 -44 42 -37 59
-46 105 -51 88 -11 153 2 184 37 15 17 41 37 57 45 47 24 75 54 75 81 0 14 15
53 34 86 32 58 34 67 39 189 5 125 6 131 45 210 22 45 44 100 48 122 8 47 19
70 51 109 13 15 30 44 38 63 8 19 27 49 41 66 15 18 35 50 44 72 25 57 267
299 364 363 43 28 93 54 112 58 20 4 50 22 74 46 32 33 49 41 94 47 52 7 90
25 130 63 31 29 83 38 176 31 79 -5 90 -4 163 25 95 39 183 49 252 29 153 -45
174 -48 263 -48 104 1 121 -5 174 -62 36 -38 39 -40 84 -33 46 6 48 5 89 -39
28 -31 56 -50 87 -60 48 -14 136 -71 179 -117 15 -15 48 -37 74 -48 27 -11 63
-34 82 -50 45 -40 104 -41 159 -3 21 14 66 40 99 58 53 27 63 37 89 90 26 53
30 71 30 150 0 139 -3 145 -177 309 -27 26 -53 46 -58 46 -6 0 -32 23 -60 50
-34 34 -58 50 -76 50 -18 0 -39 13 -65 41 -30 32 -48 42 -87 48 -28 4 -66 20
-92 39 -24 17 -65 36 -91 41 -56 13 -89 27 -147 63 -38 24 -56 28 -114 28 -57
0 -78 5 -118 28 -39 21 -49 32 -49 53 0 25 -2 26 -82 32 -84 7 -489 6 -585 0z"/>
<path d="M13450 17814 c-93 -41 -113 -46 -172 -45 -64 1 -68 0 -112 -38 -25
-21 -67 -47 -95 -56 -27 -9 -66 -29 -87 -46 -24 -19 -48 -29 -71 -29 -23 0
-40 -7 -53 -22 -42 -48 -81 -85 -147 -138 -79 -64 -167 -153 -261 -264 -37
-44 -84 -96 -105 -116 -30 -29 -40 -47 -44 -81 -4 -33 -15 -54 -45 -85 -30
-31 -41 -52 -45 -85 -3 -24 -20 -71 -38 -104 -18 -33 -38 -89 -44 -125 -7 -36
-19 -103 -27 -149 -9 -50 -27 -106 -45 -140 -27 -49 -30 -64 -27 -117 3 -55 8
-67 41 -103 20 -22 39 -53 42 -68 12 -57 29 -78 79 -94 26 -9 66 -30 89 -48
34 -26 49 -31 95 -31 49 0 56 3 85 36 18 20 55 46 84 59 28 13 56 31 61 42 5
10 22 65 37 123 15 58 36 122 46 142 13 25 19 59 19 100 1 93 16 146 56 190
37 41 54 76 54 110 0 37 112 171 252 304 126 119 137 127 191 135 31 5 57 16
65 26 7 10 24 31 39 47 25 26 31 28 78 22 41 -5 59 -1 91 15 21 12 51 28 66
35 14 8 85 23 158 34 94 14 139 25 160 40 17 12 30 26 30 31 0 5 18 29 40 52
52 57 60 82 60 189 l0 90 -104 104 -104 104 -143 0 -144 0 -105 -46z"/>
<path d="M8209 17501 c-104 -7 -113 -10 -191 -83 -82 -78 -89 -142 -87 -792
l2 -510 -24 -18 c-98 -77 -145 -108 -163 -108 -20 0 -96 -47 -96 -60 0 -4 -21
-22 -47 -40 -89 -61 -250 -272 -272 -356 -6 -22 -20 -49 -32 -60 -20 -18 -52
-19 -966 -21 l-946 -3 -48 -42 c-26 -24 -62 -54 -80 -67 -17 -14 -41 -45 -53
-70 -21 -46 -21 -51 -26 -1316 -4 -1022 -8 -1274 -18 -1293 -15 -26 -50 -42
-92 -42 -22 0 -37 -11 -65 -44 -26 -32 -50 -49 -85 -61 -27 -9 -54 -22 -60
-30 -6 -8 -31 -26 -55 -40 -24 -14 -54 -40 -66 -58 -12 -17 -32 -43 -44 -57
-13 -14 -28 -43 -35 -65 -7 -22 -30 -59 -51 -82 -24 -26 -40 -55 -44 -80 -12
-73 -15 -80 -51 -117 l-36 -37 3 -249 c4 -240 5 -249 27 -277 47 -59 53 -73
58 -123 4 -58 16 -85 44 -100 11 -6 32 -32 47 -58 39 -68 120 -163 162 -191
20 -13 47 -34 61 -46 14 -13 45 -33 70 -45 25 -12 57 -37 72 -55 25 -30 33
-33 101 -37 58 -4 85 -11 123 -33 118 -68 113 -67 246 -63 l123 3 68 42 c51
31 86 44 140 53 55 9 79 19 102 40 17 16 47 35 68 44 21 9 61 36 89 61 28 25
54 45 59 45 15 0 153 169 179 219 14 26 32 56 40 66 8 10 27 41 41 69 14 28
36 57 50 63 37 20 767 18 814 -1 34 -14 65 -59 65 -93 1 -17 22 -49 137 -202
69 -92 104 -131 116 -131 6 0 32 -18 58 -40 26 -22 67 -49 91 -59 24 -10 52
-29 63 -41 11 -12 43 -33 71 -45 28 -12 54 -31 58 -40 4 -13 10 -3803 6 -4211
0 -6 -24 -37 -53 -68 -51 -53 -56 -56 -102 -56 -54 0 -35 15 -237 -184 -75
-74 -92 -86 -120 -85 -18 0 -41 4 -51 7 -9 4 -229 218 -487 475 -394 393 -472
475 -482 509 -14 49 -6 95 70 377 22 83 24 99 13 135 -7 23 -18 68 -25 101 -8
33 -19 72 -25 88 -6 15 -15 54 -20 87 -7 41 -21 77 -45 113 -20 30 -36 65 -36
79 0 26 -7 35 -93 115 -30 29 -65 66 -76 82 -12 16 -36 39 -55 50 -18 12 -45
39 -60 61 -25 38 -29 40 -75 40 -46 0 -52 3 -84 41 -34 42 -34 42 -101 40 -46
-1 -104 8 -186 30 l-120 30 -120 -30 c-84 -22 -139 -30 -183 -28 -57 2 -65 -1
-103 -31 -22 -18 -58 -37 -79 -43 -23 -7 -57 -29 -85 -57 -26 -26 -66 -62 -88
-80 -23 -18 -42 -40 -42 -48 0 -8 -4 -14 -10 -14 -12 0 -81 -74 -113 -121 -13
-19 -38 -48 -55 -66 -23 -23 -32 -41 -32 -65 0 -52 -19 -106 -49 -141 -48 -55
-49 -60 -41 -247 4 -95 3 -190 -1 -210 -14 -58 -11 -68 31 -114 30 -32 46 -62
59 -111 10 -36 28 -76 39 -88 11 -12 26 -43 32 -69 7 -27 16 -48 20 -48 11 0
163 -151 181 -180 9 -14 29 -31 45 -39 16 -7 54 -26 84 -41 30 -15 71 -31 90
-35 19 -4 51 -17 70 -30 88 -60 106 -63 356 -60 l231 3 53 38 c43 31 63 39
111 42 l58 4 649 -648 c545 -545 651 -655 657 -684 4 -19 18 -55 32 -79 14
-25 34 -76 44 -114 9 -38 29 -85 43 -106 14 -20 28 -51 32 -68 5 -23 37 -60
123 -142 64 -61 137 -131 162 -156 40 -39 51 -45 88 -45 54 0 70 -9 120 -69
l42 -50 3 -568 c2 -417 6 -578 15 -606 17 -54 63 -102 141 -147 37 -21 72 -45
79 -53 30 -37 112 -28 161 18 14 13 44 34 67 47 23 12 65 49 92 81 l51 58 0
576 c0 643 -3 615 71 674 22 17 59 37 82 44 66 20 167 76 190 107 12 15 57 64
100 110 53 57 82 97 92 129 9 25 29 59 45 74 33 32 50 79 50 141 0 29 13 68
45 130 43 86 45 92 45 180 0 86 -2 95 -41 173 -37 74 -50 123 -59 231 0 3 -18
25 -39 48 -22 23 -43 57 -46 74 -8 34 -46 85 -126 166 -25 26 -52 59 -61 73
-18 28 -133 91 -199 109 -44 12 -112 68 -135 111 -12 24 -14 322 -14 2118 0
1542 3 2097 11 2115 10 22 62 56 86 56 4 0 20 11 35 25 15 14 51 36 81 49 42
18 85 55 186 156 72 72 131 137 131 144 0 8 17 40 39 72 28 43 44 83 59 150
14 58 33 110 54 144 32 52 33 56 33 164 0 109 -1 113 -41 201 -23 50 -47 119
-54 155 -11 63 -33 105 -112 215 -16 22 -44 63 -63 91 -34 52 -94 103 -188
161 -29 17 -66 45 -83 63 -25 26 -41 33 -95 40 -69 8 -116 27 -140 56 -29 35
-68 41 -252 38 l-179 -2 -60 -41 c-56 -37 -67 -41 -124 -41 -63 0 -65 -1 -106
-45 -27 -29 -57 -49 -81 -56 -21 -5 -66 -29 -101 -52 -66 -43 -99 -86 -152
-197 -14 -30 -43 -74 -64 -96 -25 -27 -41 -56 -46 -81 -8 -48 -37 -80 -83 -93
-21 -6 -189 -10 -398 -10 l-361 0 -31 25 c-16 14 -35 41 -41 59 -6 19 -20 42
-32 52 -11 11 -30 42 -43 69 -12 28 -38 69 -58 92 -19 24 -45 58 -57 77 -11
19 -38 45 -58 57 -20 13 -54 37 -74 56 -21 18 -55 40 -75 48 -21 9 -51 29 -68
45 -16 15 -49 33 -73 40 -78 20 -72 -66 -73 1101 0 574 3 1052 6 1062 4 9 13
17 21 17 8 0 14 7 14 15 0 8 16 19 38 24 48 14 1303 15 1350 1 45 -12 73 -43
105 -112 14 -32 30 -58 36 -58 13 0 51 -63 51 -87 0 -10 23 -44 51 -74 28 -29
54 -57 57 -61 4 -4 23 -23 42 -43 19 -19 45 -46 57 -60 12 -14 33 -25 46 -25
13 0 44 -13 68 -30 24 -16 68 -37 97 -45 33 -10 70 -31 95 -54 l42 -38 268 1
267 2 40 39 c34 34 46 39 97 43 52 3 62 8 95 43 21 22 57 48 80 59 94 43 190
147 254 272 9 18 32 52 51 76 27 33 37 56 43 105 11 75 28 124 69 202 28 53
31 66 31 151 0 89 -1 95 -41 170 -30 57 -44 96 -50 148 -7 53 -17 81 -43 120
-19 28 -37 65 -41 82 -4 21 -43 67 -138 160 -73 72 -142 143 -154 157 -18 21
-32 27 -63 27 -31 0 -52 8 -90 38 -27 20 -59 44 -72 53 l-23 17 -5 600 -5 601
-85 88 c-47 48 -89 91 -95 94 -20 13 -52 15 -146 10z m105 -2028 l109 -5 61
-56 c71 -65 85 -86 86 -129 0 -17 10 -56 21 -87 19 -48 20 -63 11 -94 -6 -20
-14 -59 -18 -87 -5 -38 -15 -57 -39 -80 -50 -46 -104 -89 -131 -103 -13 -7
-24 -18 -24 -26 0 -25 -83 -56 -154 -56 -68 0 -165 32 -166 55 0 6 -25 23 -55
38 -41 20 -59 36 -75 66 -11 22 -20 46 -20 53 0 7 -16 32 -34 56 -43 53 -51
87 -36 155 11 56 85 207 100 207 6 0 32 22 60 50 l50 50 73 -1 c39 0 121 -3
181 -6z m-2743 -3412 c16 -12 48 -28 70 -36 24 -9 65 -40 105 -80 l67 -67 10
-86 c12 -109 12 -111 -3 -207 -12 -78 -14 -81 -76 -149 -59 -63 -68 -69 -112
-73 -26 -2 -70 -16 -99 -31 l-51 -26 -54 22 c-29 12 -72 24 -96 28 -35 5 -53
18 -104 71 -35 35 -70 78 -79 96 -9 18 -26 50 -38 72 -33 61 -30 158 7 210 15
22 41 64 57 95 27 49 38 59 104 92 41 21 83 46 95 56 39 35 61 43 114 39 34
-2 63 -11 83 -26z m2761 -3 c15 -10 45 -25 67 -33 25 -8 64 -38 101 -76 70
-71 80 -87 80 -125 0 -15 7 -51 17 -80 16 -51 15 -54 -5 -103 -12 -27 -22 -69
-22 -92 0 -38 -6 -47 -73 -115 -68 -69 -77 -74 -116 -74 -26 0 -60 -10 -89
-25 -56 -30 -67 -31 -112 -6 -19 10 -56 21 -82 25 -38 6 -56 17 -107 66 -33
32 -73 80 -87 107 -15 26 -33 59 -40 73 -18 33 -28 102 -20 145 4 19 19 49 34
66 15 18 41 57 57 88 25 46 40 60 95 90 36 20 81 48 100 63 19 14 46 28 60 31
42 8 114 -5 142 -25z m-2711 -4138 c22 -6 64 -37 112 -83 66 -61 77 -77 77
-105 0 -18 5 -52 11 -76 7 -29 8 -78 1 -154 -10 -128 -16 -138 -110 -194 -30
-18 -72 -51 -93 -73 -37 -39 -40 -40 -119 -43 -98 -5 -120 0 -163 38 -19 16
-54 38 -78 49 -59 25 -80 50 -128 152 -34 72 -41 97 -41 148 0 87 57 194 148
276 l66 60 75 6 c131 9 205 9 242 -1z m2730 -2050 c20 -6 53 -25 72 -43 20
-17 56 -49 81 -70 33 -28 48 -50 56 -80 6 -23 20 -70 32 -105 l20 -63 -27 -87
c-38 -124 -43 -134 -113 -193 -100 -85 -111 -89 -237 -89 -88 0 -118 4 -150
20 -56 27 -148 101 -161 130 -6 14 -25 53 -43 88 -18 34 -35 85 -38 112 -5 43
-1 59 30 123 20 40 39 85 42 100 4 15 19 36 34 48 154 119 149 116 281 118 47
0 101 -4 121 -9z"/>
<path d="M15010 16092 c-41 -15 -80 -30 -87 -35 -18 -12 -113 -217 -113 -245
0 -13 9 -59 19 -101 11 -42 24 -107 30 -146 26 -169 55 -279 85 -315 7 -8 18
-35 25 -60 7 -25 28 -67 46 -95 18 -27 36 -67 39 -88 5 -25 17 -44 36 -59 24
-18 120 -131 120 -141 0 -2 19 -24 41 -48 23 -24 59 -68 80 -96 22 -29 56 -62
77 -73 20 -11 71 -50 112 -85 41 -36 98 -76 125 -89 28 -13 64 -36 80 -50 17
-15 46 -31 66 -36 20 -6 51 -21 70 -35 19 -13 45 -32 59 -42 16 -12 51 -20
102 -24 70 -5 82 -9 111 -37 17 -17 44 -35 58 -41 15 -5 113 -8 230 -7 l203 3
84 89 c46 48 88 99 93 112 14 36 11 169 -5 205 -7 18 -52 70 -100 116 l-86 84
-50 -7 c-60 -8 -214 11 -253 31 -15 8 -37 23 -48 34 -14 14 -33 19 -74 19 -49
0 -59 4 -94 36 -22 19 -57 40 -78 46 -21 6 -61 32 -91 59 -30 27 -58 49 -63
49 -5 0 -18 17 -29 38 -11 20 -43 57 -71 82 -107 95 -189 190 -189 222 0 26
-26 76 -61 116 -27 30 -33 54 -31 107 7 141 5 155 -37 236 -23 43 -41 85 -41
94 0 22 -44 107 -66 127 -28 25 -153 70 -204 74 -30 2 -70 -6 -120 -24z"/>
<path d="M12290 13355 c-30 -13 -72 -24 -92 -25 -41 0 -65 -19 -74 -58 -9 -44
-21 -68 -60 -118 -35 -46 -36 -51 -31 -109 3 -35 15 -80 30 -110 16 -31 35
-104 52 -195 19 -107 35 -163 60 -215 19 -38 37 -84 40 -101 3 -18 21 -49 39
-70 22 -26 36 -55 41 -84 5 -35 16 -54 48 -85 23 -22 67 -71 97 -109 99 -124
169 -200 213 -229 23 -15 56 -41 72 -56 17 -15 47 -39 67 -54 20 -15 40 -36
43 -47 7 -22 53 -50 83 -50 11 0 36 -12 57 -26 21 -14 56 -32 79 -41 22 -9 57
-31 76 -49 46 -43 84 -57 140 -49 38 5 54 1 102 -24 80 -43 173 -62 293 -59
55 2 117 -1 138 -5 38 -8 39 -8 129 80 49 48 96 100 104 115 17 32 19 173 4
214 -6 15 -28 47 -49 69 -21 23 -44 51 -50 62 -15 29 -66 50 -136 58 -130 13
-202 29 -250 52 -27 14 -80 28 -118 33 -57 7 -73 13 -106 43 -22 20 -57 41
-78 46 -26 7 -63 35 -118 88 -44 43 -89 85 -100 93 -25 18 -126 129 -177 195
-25 32 -38 58 -38 79 0 35 -32 94 -55 103 -30 11 -45 59 -45 148 0 71 -4 94
-24 134 -14 26 -34 85 -46 131 -36 141 -42 149 -150 202 -52 25 -108 47 -125
47 -16 0 -55 -11 -85 -24z"/>
<path d="M17148 12699 c-19 -3 -58 -19 -84 -36 -27 -17 -59 -34 -70 -37 -38
-11 -56 -43 -69 -121 -8 -42 -27 -105 -44 -141 -25 -54 -31 -79 -31 -138 -1
-102 -13 -152 -49 -199 -18 -23 -45 -69 -61 -102 -66 -134 -112 -192 -256
-326 -48 -44 -160 -115 -205 -130 -19 -7 -47 -24 -64 -38 -72 -64 -72 -64
-167 -71 -66 -5 -119 -17 -183 -40 -59 -22 -116 -35 -164 -38 -70 -5 -74 -6
-90 -36 -9 -17 -35 -50 -58 -72 l-43 -41 0 -124 0 -124 53 -51 c28 -28 70 -62
92 -76 22 -14 47 -33 55 -43 43 -51 162 -60 250 -19 100 47 134 57 231 63 97
7 105 10 171 63 18 14 49 24 90 29 54 6 65 12 92 42 34 39 55 51 104 60 19 4
44 21 63 42 17 19 37 35 44 35 20 0 234 204 347 330 139 156 145 165 152 205
5 27 20 53 47 80 31 32 40 50 45 90 3 28 19 73 35 101 34 63 55 140 74 278 8
58 24 129 36 158 45 112 44 138 -10 206 -17 20 -33 49 -36 65 -4 15 -21 37
-37 50 -17 12 -48 40 -69 62 -34 34 -45 40 -96 45 -32 3 -75 3 -95 -1z"/>
<path d="M13580 9229 c-30 -4 -87 -5 -126 -2 -71 5 -71 5 -111 -30 -50 -46
-80 -57 -150 -57 -51 0 -59 -3 -99 -40 -35 -33 -51 -40 -83 -40 -34 0 -44 -6
-74 -40 -19 -22 -57 -52 -85 -65 -28 -13 -53 -29 -57 -35 -3 -5 -51 -40 -105
-76 -66 -44 -102 -75 -110 -95 -7 -16 -30 -43 -52 -61 -38 -30 -57 -53 -123
-157 -16 -26 -44 -65 -61 -87 -17 -21 -36 -54 -42 -71 -6 -18 -22 -48 -34 -65
-28 -39 -42 -69 -58 -123 -7 -22 -26 -57 -42 -79 -25 -31 -32 -52 -39 -115
-11 -111 -35 -213 -69 -298 -41 -103 -38 -141 16 -206 14 -16 38 -56 55 -88
16 -32 40 -66 53 -74 13 -8 59 -22 102 -31 64 -12 92 -13 149 -3 76 12 105 26
148 71 38 41 52 72 71 157 9 40 26 92 38 115 16 30 22 64 25 126 5 113 7 121
47 168 19 24 36 57 40 80 4 29 17 49 49 78 23 22 56 59 73 84 92 136 105 150
162 179 21 11 51 36 66 55 15 20 41 43 59 53 18 9 48 29 67 44 23 18 54 31 90
37 37 5 72 20 107 44 67 46 155 63 259 49 87 -11 119 -6 137 23 8 12 51 58 96
102 l81 80 0 91 c0 110 -7 131 -65 195 -25 28 -45 54 -45 59 0 27 -132 59
-235 57 -38 0 -95 -4 -125 -9z"/>
<path d="M15775 8552 c-16 -9 -57 -19 -90 -22 -55 -5 -61 -8 -82 -40 -24 -38
-38 -54 -77 -87 -25 -21 -26 -24 -26 -145 l0 -123 65 -59 c112 -100 242 -150
395 -151 95 -1 167 -21 210 -59 8 -8 34 -19 57 -25 30 -8 52 -24 83 -60 24
-30 52 -52 69 -56 65 -14 236 -167 277 -247 9 -18 29 -47 46 -64 16 -17 39
-55 51 -85 13 -30 35 -73 51 -96 37 -55 47 -103 40 -184 -6 -60 -4 -70 29
-135 19 -38 39 -98 45 -132 11 -60 16 -68 76 -128 l65 -64 130 -3 131 -3 65
73 c36 41 65 80 65 86 0 7 18 36 40 66 47 62 49 84 16 154 -27 57 -49 156 -71
311 -10 71 -20 107 -35 126 -29 36 -49 83 -61 143 -7 37 -19 61 -44 87 -19 19
-41 55 -50 80 -8 24 -22 51 -29 60 -7 8 -20 32 -27 53 -7 20 -23 44 -35 52
-12 7 -77 71 -145 140 -68 70 -141 137 -161 150 -20 14 -45 38 -54 55 -14 23
-25 30 -50 30 -23 0 -43 11 -73 39 -23 22 -55 43 -72 46 -16 4 -50 24 -75 46
-25 21 -55 39 -68 39 -49 0 -120 30 -157 66 -34 33 -42 36 -86 34 -26 -1 -57
-2 -69 -2 -40 0 -192 22 -248 37 -71 19 -84 18 -121 -3z"/>
<path d="M13695 5802 c-17 -11 -53 -26 -82 -36 -37 -12 -65 -32 -102 -71 l-51
-54 0 -131 0 -131 55 -58 c38 -40 68 -62 98 -70 23 -7 69 -29 102 -49 59 -35
62 -36 199 -41 l138 -6 32 -39 c28 -33 39 -39 81 -41 42 -3 52 -9 94 -53 25
-27 57 -53 71 -57 56 -18 169 -118 213 -191 40 -67 86 -126 121 -157 29 -25
40 -43 47 -80 5 -27 25 -76 46 -109 37 -59 37 -62 43 -192 6 -131 6 -131 49
-211 24 -44 63 -99 87 -122 24 -24 44 -47 44 -51 0 -19 45 -29 85 -20 22 6 77
7 122 3 l82 -6 26 41 c14 22 30 40 36 40 22 0 59 50 59 80 0 16 10 58 21 91
21 60 21 64 5 129 -9 38 -16 87 -16 111 0 24 -6 92 -14 150 -12 90 -19 113
-44 148 -17 23 -35 65 -41 92 -12 56 -25 84 -51 114 -10 11 -23 40 -30 65 -7
27 -27 61 -49 85 -21 22 -59 78 -86 125 -33 59 -71 108 -123 158 -42 39 -79
72 -83 72 -4 0 -17 15 -28 33 -25 42 -116 110 -166 127 -21 7 -54 28 -75 46
-21 19 -57 41 -81 49 -24 9 -55 27 -70 41 -15 14 -56 33 -98 45 -41 11 -92 33
-115 48 -43 30 -84 38 -306 61 -47 4 -102 16 -122 24 -49 21 -86 20 -123 -2z"/>
</g>
</svg>
