<?xml version="1.0" standalone="no"?>
<!DOCTYPE svg PUBLIC "-//W3C//DTD SVG 20010904//EN"
 "http://www.w3.org/TR/2001/REC-SVG-20010904/DTD/svg10.dtd">
<svg version="1.0" xmlns="http://www.w3.org/2000/svg"
 width="2133.000000pt" height="2133.000000pt" viewBox="0 0 2133.000000 2133.000000"
 preserveAspectRatio="xMidYMid meet">
<linearGradient id="Gradient" x1="0" x2="0" y1="0" y2="1">
    <stop offset="0%" stop-color="red"/>
    <stop offset="100%" stop-color="blue"/>
</linearGradient>
<g transform="translate(0.000000,2133.000000) scale(0.100000,-0.100000)"
fill="url(#Gradient)" stroke="none">
<path d="M20425 21090 c-14 -21 -30 -31 -60 -35 -22 -4 -71 -15 -110 -25 -38
-10 -106 -21 -150 -25 -93 -7 -129 -15 -285 -62 -77 -23 -145 -36 -205 -40
-71 -4 -109 -13 -179 -40 -123 -49 -139 -53 -237 -63 -54 -5 -102 -16 -129
-30 -56 -29 -144 -56 -222 -70 -117 -20 -162 -33 -232 -66 -49 -23 -92 -35
-141 -40 -53 -5 -94 -17 -169 -52 -82 -37 -113 -46 -187 -53 -89 -8 -128 -22
-185 -66 -21 -16 -60 -28 -117 -38 -47 -9 -118 -30 -158 -49 -41 -19 -110 -42
-154 -52 -44 -9 -114 -35 -156 -56 -52 -27 -101 -43 -160 -52 -68 -11 -97 -22
-149 -55 -45 -28 -76 -41 -101 -41 -52 0 -125 -24 -164 -55 -44 -33 -92 -53
-156 -65 -28 -5 -78 -26 -112 -46 -38 -22 -84 -39 -122 -45 -61 -10 -88 -22
-168 -72 -27 -17 -70 -32 -109 -38 -47 -7 -77 -19 -119 -49 -42 -29 -73 -42
-120 -49 -46 -8 -72 -19 -98 -41 -43 -37 -80 -54 -146 -69 -27 -7 -73 -27
-101 -45 -28 -19 -75 -42 -105 -51 -56 -18 -96 -36 -188 -86 -30 -16 -66 -29
-80 -29 -14 0 -38 -8 -52 -18 -14 -9 -48 -32 -74 -49 -27 -18 -61 -33 -75 -33
-14 0 -48 -15 -75 -32 -26 -18 -60 -41 -73 -50 -14 -9 -42 -20 -63 -23 -20 -4
-65 -26 -100 -51 -39 -27 -74 -44 -91 -44 -40 0 -89 -23 -118 -55 -30 -33 -63
-50 -111 -59 -20 -3 -53 -21 -75 -40 -47 -40 -96 -66 -123 -66 -11 0 -40 -16
-65 -35 -50 -38 -118 -75 -139 -75 -7 0 -29 -12 -48 -26 -19 -14 -70 -43 -114
-64 -44 -20 -89 -47 -99 -59 -11 -12 -44 -29 -74 -37 -38 -11 -69 -30 -100
-59 -28 -27 -61 -47 -86 -54 -23 -5 -68 -31 -101 -56 -33 -26 -74 -53 -92 -60
-18 -8 -50 -27 -70 -43 -21 -17 -56 -35 -78 -42 -22 -7 -58 -30 -80 -51 -22
-21 -65 -49 -96 -63 -30 -13 -68 -35 -85 -49 -16 -13 -48 -34 -72 -46 -24 -12
-60 -37 -81 -56 -21 -19 -58 -42 -81 -50 -24 -8 -62 -33 -85 -54 -24 -22 -58
-47 -76 -57 -19 -9 -52 -32 -74 -49 -22 -18 -58 -40 -80 -49 -22 -10 -53 -30
-70 -45 -16 -16 -55 -44 -85 -63 -30 -19 -64 -45 -75 -58 -11 -12 -42 -32 -70
-45 -27 -12 -59 -32 -70 -45 -11 -12 -38 -31 -60 -42 -22 -11 -65 -44 -96 -72
-108 -97 -155 -134 -193 -150 -20 -8 -58 -34 -83 -56 -25 -22 -50 -40 -55 -40
-5 0 -37 -26 -72 -57 -96 -88 -205 -175 -299 -240 -47 -31 -120 -94 -323 -276
-100 -89 -214 -189 -254 -222 -40 -33 -86 -73 -103 -90 -16 -16 -40 -37 -53
-45 -35 -23 -224 -199 -344 -320 -105 -105 -194 -171 -260 -190 -19 -6 -102
-15 -185 -19 -137 -8 -158 -12 -241 -45 -122 -47 -169 -57 -296 -60 -85 -3
-115 -7 -150 -25 -60 -30 -292 -81 -371 -81 -38 0 -99 -10 -148 -24 -170 -48
-279 -70 -439 -86 -52 -5 -138 -23 -190 -40 -118 -37 -251 -60 -354 -60 -67 0
-90 -5 -145 -30 -75 -34 -239 -70 -316 -70 -29 0 -138 -22 -246 -49 -131 -33
-226 -51 -291 -55 -57 -4 -133 -17 -185 -32 -188 -56 -240 -66 -373 -72 -128
-7 -138 -9 -192 -40 -32 -19 -58 -38 -58 -43 0 -5 -9 -9 -19 -9 -49 0 -113
-42 -208 -137 -54 -54 -130 -128 -168 -164 -39 -37 -128 -127 -200 -200 -71
-74 -164 -166 -205 -205 -41 -40 -114 -112 -162 -160 -47 -49 -209 -209 -360
-356 -150 -148 -282 -277 -293 -288 -16 -16 -294 -294 -415 -415 -84 -83 -288
-288 -305 -305 -29 -30 -387 -387 -408 -408 -41 -39 -308 -308 -382 -384 -44
-44 -113 -113 -153 -152 -85 -82 -283 -280 -393 -393 -42 -43 -117 -117 -165
-164 -133 -130 -181 -186 -195 -227 -7 -20 -29 -73 -51 -116 -32 -68 -38 -90
-38 -146 0 -71 19 -150 49 -203 11 -17 22 -48 26 -67 10 -45 114 -154 180
-187 28 -14 70 -40 94 -57 42 -30 46 -31 175 -34 105 -3 140 0 176 13 104 40
297 85 360 85 36 0 111 11 168 25 56 14 148 36 205 50 56 14 159 29 227 34 98
7 143 16 210 40 121 43 223 61 346 61 101 0 111 2 160 30 64 36 194 66 326 74
62 4 124 15 175 32 106 35 296 74 361 74 53 0 213 35 332 72 45 14 110 23 210
28 131 7 152 11 219 39 112 47 183 62 307 66 89 2 122 8 160 25 57 26 89 35
199 55 108 20 148 19 168 -3 39 -43 28 -150 -22 -220 -16 -20 -38 -67 -50
-104 -12 -37 -35 -85 -52 -107 -16 -23 -43 -78 -59 -123 -16 -44 -36 -88 -44
-97 -24 -28 -55 -98 -62 -140 -4 -26 -21 -60 -45 -90 -45 -56 -59 -89 -59
-136 0 -23 -10 -46 -36 -76 -48 -58 -64 -91 -64 -135 0 -25 -15 -64 -44 -118
-24 -45 -53 -113 -65 -153 -12 -39 -32 -85 -46 -101 -36 -43 -55 -94 -55 -149
-1 -26 -5 -68 -10 -93 -7 -40 3 -140 25 -246 8 -35 155 -210 287 -342 67 -67
129 -128 136 -135 457 -454 695 -695 703 -708 17 -33 11 -98 -12 -117 -55 -44
-180 -160 -198 -183 -11 -15 -70 -75 -131 -135 -61 -60 -150 -149 -198 -198
-166 -170 -307 -308 -345 -338 -21 -17 -45 -44 -53 -62 -9 -17 -29 -45 -46
-62 -21 -22 -39 -62 -63 -145 -40 -132 -43 -186 -15 -284 11 -38 25 -90 31
-115 9 -37 28 -62 107 -142 80 -80 105 -98 142 -107 25 -6 70 -18 99 -27 99
-29 161 -29 253 -1 46 14 97 28 114 32 18 3 49 21 70 39 22 18 51 39 67 47 15
8 67 57 115 110 48 52 113 119 145 149 32 30 97 94 145 143 171 172 322 322
354 353 29 27 124 130 163 177 17 19 84 23 116 7 10 -6 240 -232 511 -503 467
-467 624 -612 672 -621 136 -26 169 -28 290 -18 124 10 129 11 181 47 30 20
89 48 131 61 43 14 103 41 135 61 39 23 74 37 106 40 80 7 91 12 143 58 34 30
60 45 78 45 48 0 91 18 143 59 31 25 65 42 92 46 46 8 77 22 132 59 20 14 64
34 99 46 34 11 86 36 116 55 30 19 82 44 116 55 35 12 73 29 86 39 50 39 87
51 156 51 110 0 119 -23 81 -211 -11 -56 -31 -129 -45 -162 -20 -47 -26 -81
-29 -166 -7 -166 -21 -232 -73 -336 -22 -43 -26 -68 -32 -195 -4 -80 -12 -158
-19 -173 -27 -67 -74 -280 -82 -372 -10 -117 -30 -214 -70 -343 -20 -63 -32
-126 -36 -190 -7 -126 -34 -252 -68 -327 -23 -51 -29 -80 -35 -190 -9 -141
-25 -224 -66 -331 -20 -52 -28 -97 -34 -185 -7 -108 -33 -243 -81 -419 -12
-41 -24 -122 -29 -180 -8 -112 -37 -236 -76 -337 -21 -53 -24 -78 -24 -186 0
-135 -6 -116 83 -278 44 -79 137 -171 192 -189 22 -7 65 -27 95 -44 51 -29 62
-31 155 -31 l100 0 115 54 c63 30 136 72 163 95 26 23 179 173 340 335 258
260 446 448 470 469 7 7 321 323 477 481 41 42 135 135 209 206 74 72 144 141
155 155 16 19 181 185 284 285 5 6 100 100 210 210 110 110 207 207 215 215 9
8 134 136 279 284 145 148 323 328 397 400 74 72 167 165 207 206 41 41 187
190 325 330 l252 255 68 135 69 135 0 91 c0 105 11 177 47 294 42 140 52 190
59 290 6 86 22 162 85 390 10 36 18 95 18 131 1 91 36 251 71 330 24 53 30 79
30 137 0 105 17 211 56 346 21 70 41 170 49 240 14 128 42 266 76 381 11 39
24 117 29 175 10 123 42 270 78 355 20 49 26 81 29 173 4 116 19 180 77 337
21 57 26 88 26 170 0 55 7 130 14 166 17 88 82 200 137 234 21 14 39 29 39 34
0 4 28 37 63 72 124 129 232 245 264 285 17 23 45 55 60 72 15 17 55 63 88
102 58 70 344 391 425 477 22 24 48 60 59 81 11 21 27 45 37 53 10 8 29 32 43
54 29 45 88 117 173 210 31 35 63 76 71 91 8 16 25 38 37 49 12 11 32 40 45
65 13 25 33 54 45 65 12 11 29 33 37 50 9 16 39 54 68 85 28 30 64 76 79 103
15 26 31 47 37 47 6 0 23 28 39 63 15 34 38 71 50 82 13 11 39 45 58 75 19 30
48 70 64 88 15 18 35 49 43 69 8 19 28 51 45 69 16 19 39 51 49 72 11 20 40
61 65 90 25 29 50 70 56 91 5 20 21 48 35 61 15 14 40 49 57 80 18 30 46 72
63 92 18 21 37 56 44 78 6 22 28 56 47 76 20 19 51 68 69 108 18 41 38 77 44
81 6 3 23 29 37 57 14 28 43 73 65 100 21 27 44 68 50 91 6 23 30 62 54 89 26
29 50 70 61 101 9 29 27 63 40 77 12 14 36 56 53 93 17 37 42 82 56 100 13 19
31 52 39 75 8 23 35 70 59 106 25 36 48 81 51 101 4 20 26 59 51 90 24 30 47
67 50 82 4 15 8 38 11 51 3 13 22 42 44 66 41 44 60 82 60 120 0 13 20 54 45
92 25 38 48 86 52 107 3 23 23 62 49 96 23 31 45 68 48 81 2 14 7 36 10 50 3
14 26 52 50 84 27 34 48 73 51 94 12 71 15 79 55 138 22 32 40 66 40 75 0 32
40 130 69 172 17 23 39 74 49 114 13 49 30 84 51 109 38 42 46 61 56 129 4 31
17 63 35 85 37 47 58 95 65 151 3 27 21 71 42 105 41 69 63 125 63 164 0 15
20 67 45 116 25 48 45 95 45 104 0 31 33 115 63 159 34 50 57 118 57 169 0 25
13 55 40 97 33 50 43 79 56 151 11 61 26 107 49 149 19 34 45 105 59 162 14
56 38 128 55 161 17 35 36 95 45 147 12 71 23 100 56 149 35 55 41 72 49 153
8 75 16 104 51 172 31 63 43 101 51 164 12 100 13 104 54 197 19 42 40 115 49
167 16 92 55 222 83 276 8 16 19 69 24 119 7 68 20 117 54 202 37 95 45 128
50 204 4 60 17 129 39 204 45 151 55 196 66 308 5 52 15 118 23 145 8 28 18
68 22 90 7 43 29 75 52 75 10 0 13 19 13 78 0 76 -1 77 -29 90 -22 10 -35 28
-54 75 -13 34 -28 77 -32 96 -5 23 -30 57 -80 107 -69 70 -78 75 -171 107 -85
28 -99 36 -113 65 -16 31 -17 32 -86 32 -66 0 -71 -2 -90 -30z m-642 -1282
c24 -29 21 -55 -13 -123 -20 -42 -30 -75 -30 -110 -1 -77 -25 -177 -65 -266
-28 -60 -39 -101 -45 -162 -4 -45 -15 -100 -25 -122 -37 -85 -57 -154 -75
-250 -11 -66 -32 -132 -59 -192 -27 -59 -44 -116 -50 -161 -6 -49 -20 -91 -50
-149 -32 -63 -44 -98 -50 -156 -6 -52 -17 -89 -35 -119 -45 -75 -58 -111 -71
-189 -8 -50 -26 -104 -53 -160 -23 -46 -44 -104 -48 -129 -3 -25 -25 -85 -49
-135 -24 -49 -50 -123 -59 -163 -11 -52 -27 -89 -56 -130 -32 -45 -42 -71 -49
-124 -6 -45 -21 -88 -44 -130 -19 -35 -45 -94 -56 -133 -12 -38 -37 -93 -56
-121 -24 -35 -39 -72 -48 -121 -10 -55 -21 -80 -46 -108 -39 -45 -48 -65 -56
-126 -3 -28 -22 -73 -44 -110 -21 -35 -48 -94 -60 -131 -12 -37 -34 -84 -48
-105 -32 -47 -50 -88 -63 -148 -6 -27 -25 -66 -44 -89 -43 -53 -52 -72 -61
-125 -5 -28 -19 -56 -40 -80 -43 -48 -52 -67 -60 -126 -6 -38 -17 -60 -47 -93
-43 -47 -58 -79 -58 -122 0 -19 -15 -45 -45 -81 -25 -29 -49 -69 -54 -89 -5
-19 -12 -46 -15 -60 -3 -14 -22 -42 -41 -64 -21 -23 -42 -60 -51 -93 -9 -30
-29 -69 -45 -88 -16 -18 -40 -63 -54 -101 -13 -37 -35 -79 -49 -93 -13 -14
-36 -52 -50 -85 -14 -32 -42 -80 -61 -106 -19 -26 -38 -62 -41 -80 -4 -17 -28
-55 -53 -83 -49 -54 -71 -94 -71 -127 0 -11 -14 -35 -30 -54 -17 -19 -43 -63
-59 -98 -16 -34 -39 -72 -51 -83 -12 -11 -33 -44 -46 -74 -13 -29 -40 -71 -60
-93 -19 -22 -44 -60 -55 -85 -11 -25 -31 -59 -45 -76 -14 -16 -36 -51 -49 -77
-13 -27 -42 -69 -64 -94 -22 -26 -45 -64 -51 -85 -5 -21 -17 -45 -26 -52 -9
-7 -34 -40 -57 -74 -22 -33 -54 -72 -70 -88 -16 -15 -43 -53 -61 -86 -51 -95
-88 -151 -137 -205 -26 -28 -54 -67 -64 -86 -10 -19 -35 -57 -56 -84 -22 -27
-39 -54 -39 -61 0 -7 -17 -32 -38 -56 -21 -24 -49 -60 -62 -79 -13 -19 -41
-50 -62 -69 -21 -18 -49 -54 -62 -80 -13 -25 -34 -55 -46 -66 -12 -11 -31 -36
-41 -57 -21 -41 -57 -86 -269 -332 -30 -36 -75 -90 -100 -122 -25 -32 -63 -78
-85 -103 -23 -25 -49 -59 -59 -75 -25 -39 -55 -72 -481 -523 -33 -35 -93 -96
-134 -136 -41 -39 -88 -87 -105 -106 -74 -82 -261 -263 -286 -278 -15 -8 -35
-28 -44 -44 -9 -15 -29 -37 -44 -48 -15 -11 -82 -73 -149 -139 -226 -221 -438
-407 -546 -477 -16 -11 -50 -39 -74 -63 -24 -23 -48 -42 -54 -42 -5 0 -35 -26
-68 -57 -75 -74 -168 -154 -206 -178 -16 -11 -47 -34 -68 -52 -20 -18 -41 -33
-47 -33 -5 0 -32 -20 -60 -45 -28 -25 -68 -54 -90 -65 -22 -11 -50 -34 -62
-51 -13 -17 -39 -40 -58 -51 -19 -12 -55 -37 -80 -57 -25 -20 -57 -42 -72 -49
-16 -6 -47 -29 -70 -50 -24 -22 -61 -49 -83 -60 -22 -11 -56 -37 -75 -57 -19
-20 -53 -44 -75 -54 -22 -10 -53 -30 -68 -45 -16 -14 -45 -33 -65 -42 -20 -8
-55 -33 -77 -54 -22 -21 -61 -48 -87 -60 -26 -11 -60 -32 -76 -45 -16 -14 -49
-33 -73 -43 -24 -11 -61 -38 -81 -60 -20 -23 -59 -51 -87 -62 -27 -12 -59 -32
-71 -45 -12 -13 -45 -32 -72 -42 -27 -9 -72 -37 -99 -60 -29 -24 -65 -45 -86
-49 -21 -4 -55 -24 -86 -52 -28 -25 -71 -54 -96 -65 -25 -11 -61 -33 -79 -48
-18 -16 -45 -32 -60 -35 -42 -10 -84 -34 -123 -69 -25 -22 -51 -34 -82 -39
-37 -6 -58 -18 -100 -56 -31 -28 -69 -53 -92 -59 -22 -6 -64 -28 -92 -50 -29
-22 -75 -47 -102 -56 -27 -9 -65 -28 -84 -44 -19 -15 -54 -35 -78 -45 -24 -9
-64 -28 -89 -41 -25 -13 -79 -41 -120 -61 -41 -20 -92 -50 -113 -66 -20 -17
-63 -37 -95 -45 -31 -8 -84 -32 -117 -53 -33 -20 -82 -46 -110 -56 -27 -10
-72 -32 -100 -50 -27 -18 -82 -42 -122 -54 -40 -11 -85 -31 -100 -44 -41 -34
-88 -56 -120 -56 -30 0 -61 -15 -136 -66 -27 -18 -66 -34 -92 -37 -27 -4 -65
-20 -96 -42 -64 -44 -110 -46 -165 -9 -21 15 -42 31 -45 36 -7 12 -587 594
-633 636 -49 44 -53 70 -23 136 19 42 35 60 64 75 21 11 78 64 126 118 48 54
113 121 143 148 78 71 207 199 289 289 39 42 75 76 80 76 6 0 24 19 40 41 17
23 42 47 56 55 15 7 40 30 57 51 36 46 224 238 342 349 182 172 382 387 395
425 8 20 30 61 49 90 20 28 39 62 42 75 3 13 4 83 2 156 l-3 133 -75 110 c-72
105 -80 114 -185 185 l-110 75 -155 0 -155 0 -60 -42 c-33 -23 -72 -45 -87
-48 -32 -8 -238 -204 -522 -495 -67 -69 -160 -161 -207 -206 -46 -44 -138
-135 -204 -202 -66 -67 -156 -157 -200 -202 -44 -44 -117 -117 -161 -162 -45
-46 -119 -120 -165 -165 -46 -45 -97 -97 -112 -117 -16 -20 -47 -42 -72 -52
-55 -20 -85 -10 -130 44 -17 20 -168 172 -335 337 -167 165 -313 311 -324 324
-11 13 -21 44 -24 71 -4 44 -1 53 32 93 23 28 39 60 42 84 10 69 13 78 53 131
28 39 42 69 50 113 7 43 21 75 51 116 22 31 40 62 40 70 0 28 39 123 63 155
14 18 37 64 50 101 14 37 37 85 51 106 15 21 40 72 55 114 15 41 41 92 58 113
16 22 36 59 44 84 7 24 28 66 46 92 18 26 42 72 54 102 11 30 38 81 59 113 22
32 40 65 40 73 0 17 31 70 76 128 18 23 34 60 38 84 5 31 17 52 47 80 40 39
69 91 69 127 0 10 18 41 40 67 22 27 47 71 56 99 10 27 28 63 41 79 13 16 35
50 48 76 13 26 44 70 68 99 29 34 47 65 51 90 4 24 20 54 46 84 22 25 51 70
64 99 13 29 33 61 44 71 11 10 29 39 40 65 11 26 37 63 58 82 20 19 46 55 58
80 11 25 33 61 48 81 15 19 35 53 44 74 9 22 35 61 59 87 23 26 50 64 60 85
10 21 30 52 46 68 15 17 35 46 43 66 8 20 33 56 56 80 22 24 48 58 57 74 9 17
36 52 59 79 24 26 44 54 44 62 0 7 13 28 29 46 15 18 44 58 64 89 20 31 47 63
61 72 14 9 37 38 52 64 15 27 44 66 63 89 20 22 44 54 53 70 38 63 173 228
251 305 31 32 57 62 57 68 0 6 18 31 40 55 22 24 51 57 63 74 82 111 152 195
272 327 129 140 378 399 421 437 10 9 52 55 93 102 41 47 80 86 88 86 7 0 13
4 13 9 0 9 216 226 358 359 37 35 108 103 157 151 141 135 317 295 355 321 19
13 56 42 81 64 25 23 71 61 103 86 32 25 86 70 122 100 246 212 291 248 332
269 21 10 46 29 57 41 11 12 41 33 67 46 26 13 60 40 75 60 15 19 41 42 57 51
15 8 47 32 70 53 22 20 57 45 76 55 19 10 51 31 69 48 19 16 53 38 75 48 23
10 59 36 81 59 22 23 54 49 70 57 17 9 48 30 70 48 22 17 57 38 77 44 21 7 57
31 80 53 23 22 60 52 82 65 23 14 55 38 71 53 17 15 47 33 68 40 21 6 58 30
83 51 26 22 67 50 93 64 26 13 54 31 61 41 8 9 46 31 85 49 38 18 81 45 95 60
14 15 53 40 86 55 34 16 65 33 69 39 3 6 39 28 78 48 40 19 89 50 110 68 23
20 54 35 78 39 29 5 54 19 89 52 27 25 71 54 99 65 28 10 71 34 95 53 25 19
66 42 93 52 26 9 62 30 78 45 17 15 61 39 99 53 37 13 80 36 95 50 15 14 56
36 92 47 40 14 80 36 106 60 26 24 56 40 80 44 44 8 109 43 137 74 10 11 35
23 55 26 73 12 82 16 131 60 28 25 60 45 71 45 50 0 112 25 150 60 32 29 56
41 99 49 44 9 69 21 102 51 35 31 61 43 116 55 45 11 84 27 107 45 34 27 130
70 158 70 7 0 45 20 86 45 44 26 92 47 120 51 54 8 69 15 126 59 33 25 57 34
103 39 47 5 75 16 119 45 32 21 96 51 143 66 46 14 96 35 110 45 39 28 99 50
136 50 43 0 78 14 139 55 33 23 78 41 133 54 46 11 113 36 149 56 41 22 91 40
127 46 37 6 92 26 140 50 53 28 100 44 145 50 71 10 112 23 151 49 44 29 110
51 186 60 57 7 92 19 149 51 57 31 93 43 148 50 46 6 97 21 142 43 97 47 119
53 208 66 43 7 127 30 185 52 73 27 133 43 189 48 59 6 103 18 160 43 101 46
152 59 240 62 55 2 81 8 115 27 72 43 118 45 151 6z m-11309 -5504 c20 -20 20
-67 0 -106 -9 -17 -44 -61 -78 -98 -95 -104 -150 -171 -179 -217 -14 -23 -39
-56 -55 -75 -16 -18 -37 -48 -46 -67 -10 -18 -35 -52 -55 -75 -21 -22 -47 -57
-59 -76 -11 -20 -33 -47 -47 -60 -15 -14 -40 -50 -55 -80 -15 -30 -38 -64 -50
-75 -12 -11 -29 -33 -36 -48 -8 -15 -37 -52 -64 -82 -27 -30 -57 -72 -65 -92
-9 -21 -29 -51 -45 -68 -15 -16 -35 -48 -44 -69 -9 -22 -36 -60 -59 -85 -24
-25 -49 -62 -57 -81 -7 -19 -28 -53 -46 -75 -17 -22 -39 -56 -47 -75 -8 -19
-31 -53 -52 -75 -20 -22 -50 -68 -65 -101 -16 -34 -33 -65 -39 -69 -6 -3 -23
-30 -37 -58 -14 -29 -45 -77 -68 -107 -23 -30 -50 -76 -60 -103 -23 -61 -64
-91 -146 -107 -36 -6 -77 -18 -91 -26 -37 -19 -317 -74 -377 -74 -27 0 -138
-23 -248 -50 -158 -40 -226 -52 -329 -59 -101 -7 -145 -15 -200 -36 -108 -41
-179 -55 -315 -64 -99 -7 -138 -14 -187 -35 -78 -33 -213 -62 -323 -71 -47 -3
-125 -17 -175 -30 -201 -53 -302 -75 -344 -75 -61 0 -160 -18 -261 -47 -196
-56 -286 -62 -315 -20 -18 25 -20 99 -4 130 13 24 2022 2031 2157 2154 l83 76
87 7 c48 4 123 17 167 28 145 37 268 61 395 78 69 9 157 25 195 36 156 44 236
58 355 66 105 7 135 13 185 36 71 32 235 66 323 66 43 0 96 10 170 34 117 36
248 62 357 70 39 3 95 14 125 25 68 24 104 26 124 5z m5790 -5787 c24 -18 23
-48 -3 -124 -12 -35 -23 -98 -26 -140 -5 -82 -24 -181 -57 -298 -11 -38 -26
-92 -34 -120 -8 -27 -14 -75 -14 -106 0 -76 -37 -251 -67 -319 -19 -43 -27
-82 -33 -175 -10 -137 -32 -256 -60 -333 -11 -29 -31 -133 -44 -230 -13 -98
-41 -242 -61 -322 -20 -79 -40 -187 -45 -238 l-9 -95 -274 -276 c-1039 -1044
-1937 -1941 -1955 -1950 -30 -16 -104 -14 -129 4 -44 31 -37 125 22 300 13 39
31 131 40 205 20 157 48 302 80 415 12 44 26 121 30 170 9 123 40 259 72 325
24 48 28 70 34 190 6 104 13 155 34 220 61 198 65 215 65 301 0 72 9 124 55
304 31 123 55 240 55 269 0 67 26 198 60 311 16 50 34 117 40 150 17 89 52
134 119 156 20 7 56 29 81 49 25 21 70 50 100 65 30 15 66 37 80 50 14 12 42
28 63 35 21 7 61 32 89 57 28 25 70 53 93 63 23 10 57 31 76 47 19 16 50 36
69 43 19 8 58 35 85 61 28 25 66 52 86 58 20 6 47 23 60 38 13 14 47 36 74 48
28 13 68 42 90 65 22 23 56 50 75 60 19 10 44 28 55 40 11 13 43 33 70 45 28
13 61 35 75 50 14 15 48 43 77 61 28 18 66 47 85 64 18 17 47 39 63 47 17 9
50 33 74 54 24 22 54 39 67 39 13 0 24 5 24 11 0 14 34 47 103 98 29 21 68 56
87 76 75 81 160 114 204 82z"/>
<path d="M14400 16504 c-109 -8 -216 -25 -278 -44 -35 -11 -85 -20 -111 -20
-59 0 -96 -13 -169 -56 -30 -19 -71 -36 -91 -40 -20 -3 -48 -8 -63 -10 -14 -3
-53 -27 -87 -54 -33 -26 -75 -53 -94 -59 -19 -7 -45 -23 -58 -37 -13 -14 -45
-36 -71 -49 -25 -12 -69 -44 -97 -71 -127 -121 -286 -287 -303 -316 -11 -18
-33 -46 -48 -63 -15 -16 -33 -47 -40 -67 -6 -21 -27 -57 -46 -80 -44 -52 -64
-90 -64 -122 0 -13 -20 -62 -44 -108 -25 -47 -51 -115 -60 -158 -9 -41 -32
-125 -51 -186 -44 -141 -55 -216 -55 -384 0 -180 13 -274 55 -400 20 -58 42
-142 50 -187 16 -92 30 -131 69 -187 14 -21 26 -48 26 -60 1 -31 36 -104 70
-142 16 -19 34 -52 40 -74 24 -90 518 -585 608 -609 22 -6 61 -29 87 -50 27
-23 67 -44 94 -50 25 -7 64 -21 86 -33 22 -11 56 -29 75 -38 19 -10 74 -25
122 -34 47 -9 134 -32 193 -52 138 -45 247 -57 460 -51 155 5 177 8 255 35
143 50 182 60 253 71 47 7 91 22 140 49 40 22 96 45 125 51 38 8 69 24 108 56
31 24 72 49 93 55 20 5 48 22 62 36 13 14 43 37 66 51 37 22 113 94 323 308
27 28 56 67 64 87 9 19 28 50 43 68 15 18 37 55 50 83 13 28 41 70 63 93 26
28 41 55 45 81 9 62 25 104 62 164 28 46 35 71 43 145 6 49 19 125 30 169 53
208 49 537 -10 754 -6 23 -15 78 -20 122 -7 65 -17 94 -49 153 -22 40 -48 102
-57 137 -10 41 -30 82 -54 114 -21 28 -47 68 -58 90 -11 22 -32 51 -47 65 -15
14 -36 45 -47 69 -21 49 -57 94 -160 202 -38 39 -68 74 -68 78 0 4 -17 17 -38
28 -20 12 -48 34 -62 48 -14 15 -43 36 -65 47 -22 11 -53 33 -70 48 -16 15
-56 42 -88 58 -32 17 -74 44 -95 60 -21 17 -65 37 -102 46 -36 9 -90 32 -120
50 -62 38 -117 56 -174 56 -21 0 -66 7 -99 16 -150 39 -384 59 -547 48z m285
-1074 c134 -20 175 -33 224 -72 14 -10 43 -27 66 -37 50 -22 291 -260 311
-306 7 -16 28 -56 47 -88 20 -32 38 -75 41 -95 3 -20 13 -84 22 -142 14 -90
15 -119 5 -200 -21 -166 -40 -242 -70 -285 -16 -22 -38 -60 -51 -85 -37 -74
-194 -241 -255 -272 -22 -11 -61 -37 -86 -58 -39 -33 -56 -40 -120 -49 -41 -6
-101 -20 -134 -31 -33 -12 -96 -24 -140 -27 -70 -5 -89 -2 -155 22 -41 14
-107 30 -147 34 -61 7 -79 14 -120 45 -26 20 -66 44 -88 55 -52 24 -206 178
-234 233 -12 24 -38 65 -58 91 -30 41 -37 60 -44 120 -4 40 -19 104 -33 142
-34 94 -34 162 4 300 16 61 32 131 35 158 4 31 17 61 38 90 18 23 44 62 59 87
45 76 207 225 280 258 24 10 61 34 84 53 37 32 51 36 160 52 65 9 130 19 144
21 53 7 82 5 215 -14z"/>
<path d="M3893 8338 c-50 -8 -89 -27 -126 -62 -15 -14 -35 -26 -43 -26 -8 0
-27 -6 -42 -14 -15 -8 -775 -763 -1689 -1678 l-1661 -1663 -22 -75 c-17 -57
-31 -84 -61 -113 -39 -39 -39 -40 -39 -118 0 -61 3 -79 14 -79 16 0 66 -55 66
-73 0 -7 13 -39 29 -72 21 -46 51 -82 122 -149 52 -49 108 -94 124 -101 31
-13 159 -29 230 -28 118 0 239 30 260 63 4 6 31 29 62 51 53 40 3172 3156
3264 3261 67 77 75 94 98 191 29 122 27 202 -7 325 -26 90 -34 107 -80 157
-29 31 -52 61 -52 66 0 12 -74 49 -98 49 -11 0 -35 15 -55 33 -19 19 -54 39
-79 45 -56 14 -161 20 -215 10z"/>
<path d="M4692 5380 c-45 -21 -99 -44 -120 -50 -21 -5 -59 -29 -84 -52 -26
-24 -72 -65 -103 -93 -32 -27 -98 -92 -149 -143 -50 -51 -145 -145 -210 -210
-65 -64 -155 -155 -200 -200 -95 -99 -191 -194 -313 -313 -48 -47 -138 -137
-200 -200 -62 -63 -154 -155 -205 -205 -51 -50 -127 -127 -168 -170 -41 -44
-111 -113 -155 -154 -44 -41 -134 -131 -201 -200 -66 -69 -161 -163 -210 -210
-49 -47 -121 -119 -160 -160 -39 -41 -129 -132 -200 -202 -71 -71 -182 -181
-246 -245 -65 -65 -137 -136 -160 -158 -24 -23 -99 -99 -169 -170 -69 -72
-160 -161 -202 -200 -43 -38 -87 -87 -99 -108 -12 -20 -32 -44 -44 -52 -12 -8
-30 -37 -39 -67 -10 -29 -34 -84 -53 -123 -34 -64 -37 -77 -36 -155 0 -76 4
-94 36 -165 20 -44 39 -94 42 -111 9 -42 139 -159 204 -184 26 -10 76 -31 112
-47 53 -23 79 -28 140 -27 64 0 86 5 151 36 42 19 93 41 115 48 21 7 55 27 74
44 19 18 48 40 63 50 16 10 63 53 105 97 197 204 299 306 328 326 17 12 43 40
59 62 15 23 36 41 46 41 11 0 19 7 19 15 0 9 64 78 142 154 79 77 156 152 171
168 16 15 84 84 153 153 167 169 319 320 573 571 13 13 80 81 150 151 244 247
394 397 579 580 54 53 388 387 417 417 75 76 282 284 357 358 77 75 110 111
232 248 24 28 48 64 52 80 4 17 27 70 51 119 59 123 59 167 -2 296 -25 52 -45
103 -45 113 0 29 -14 48 -84 120 -48 49 -76 69 -108 77 -24 7 -81 29 -127 51
-115 54 -167 54 -279 -1z"/>
<path d="M7590 4516 c-73 -19 -93 -30 -148 -77 -89 -76 -2722 -2706 -2722
-2719 0 -5 -5 -10 -11 -10 -16 0 -502 -490 -570 -575 -69 -86 -79 -104 -79
-148 0 -18 -5 -60 -12 -92 -12 -59 1 -207 23 -282 6 -19 51 -74 112 -136 88
-90 111 -108 162 -126 70 -26 135 -68 135 -87 0 -11 19 -14 78 -14 71 0 78 2
87 22 12 27 95 74 145 83 19 3 45 12 58 19 13 7 768 757 1678 1667 1402 1401
1659 1662 1682 1709 14 30 40 74 57 98 27 39 30 53 34 134 4 126 -4 167 -49
237 -21 33 -44 79 -51 101 -7 23 -24 49 -37 58 -13 10 -48 38 -77 64 -33 28
-71 51 -97 58 -24 6 -65 18 -92 26 -72 20 -205 16 -306 -10z"/>
</g>
</svg>
